<?xml version="1.0" encoding="UTF-8" standalone="no"?>
<svg
   xmlns:dc="http://purl.org/dc/elements/1.1/"
   xmlns:cc="http://creativecommons.org/ns#"
   xmlns:rdf="http://www.w3.org/1999/02/22-rdf-syntax-ns#"
   xmlns:svg="http://www.w3.org/2000/svg"
   xmlns="http://www.w3.org/2000/svg"
   xmlns:sodipodi="http://sodipodi.sourceforge.net/DTD/sodipodi-0.dtd"
   xmlns:inkscape="http://www.inkscape.org/namespaces/inkscape"
   id="Calque_1"
   data-name="Calque 1"
   viewBox="0 0 1080 202.07579"
   version="1.1"
   sodipodi:docname="Logo Mix  - Couleurs.svg"
   inkscape:version="1.0.1 (3bc2e813f5, 2020-09-07)"
   width="1080"
   height="202.07581">
  <metadata
     id="metadata163">
    <rdf:RDF>
      <cc:Work
         rdf:about="">
        <dc:format>image/svg+xml</dc:format>
        <dc:type
           rdf:resource="http://purl.org/dc/dcmitype/StillImage" />
        <dc:title></dc:title>
      </cc:Work>
    </rdf:RDF>
  </metadata>
  <sodipodi:namedview
     pagecolor="#ffffff"
     bordercolor="#666666"
     borderopacity="1"
     objecttolerance="10"
     gridtolerance="10"
     guidetolerance="10"
     inkscape:pageopacity="0"
     inkscape:pageshadow="2"
     inkscape:window-width="1680"
     inkscape:window-height="987"
     id="namedview161"
     showgrid="false"
     inkscape:zoom="0.48130673"
     inkscape:cx="709.56533"
     inkscape:cy="62.852141"
     inkscape:window-x="-8"
     inkscape:window-y="-8"
     inkscape:window-maximized="1"
     inkscape:current-layer="g1157"
     fit-margin-top="0"
     fit-margin-left="0"
     fit-margin-right="0"
     fit-margin-bottom="0" />
  <defs
     id="defs4">
    <style
       id="style2">.cls-1{fill:#393189;}.cls-2{fill:#ef7c56;}.cls-3{fill:#58b58d;}.cls-4{fill:#53bfcc;}</style>
  </defs>
  <g
     id="g1132"
     transform="translate(-74.451265,-132.00113)">
    <path
       class="cls-2"
       d="m 100.94626,315.35693 a 9.2,9.2 0 0 1 -9.31,9.09 h -0.09 a 9.2,9.2 0 0 1 -9.21,-9 v -0.09 a 9.31,9.31 0 0 1 18.61,0 z"
       id="path54" />
    <path
       class="cls-2"
       d="m 1146.5663,315.35693 a 9.19,9.19 0 0 1 -9.3,9.09 h -0.1 a 9.2,9.2 0 0 1 -9.21,-9 v -0.09 a 9.31,9.31 0 0 1 18.61,0 z"
       id="path56" />
    <path
       class="cls-2"
       d="m 165.25626,308.21693 a 9.09,9.09 0 0 1 3.57,3.55 11.51,11.51 0 0 1 0,10.59 9,9 0 0 1 -3.57,3.57 10.49,10.49 0 0 1 -5.16,1.26 8,8 0 0 1 -6.33,-2.66 v 9.55 h -4.62 v -26.9 h 4.4 v 2.59 a 7.2,7.2 0 0 1 2.83,-2.11 9.52,9.52 0 0 1 3.72,-0.7 10.49,10.49 0 0 1 5.16,1.26 z m -1.48,13.31 a 6.93,6.93 0 0 0 0,-9 5.61,5.61 0 0 0 -4.2,-1.7 5.92,5.92 0 0 0 -3,0.76 5.39,5.39 0 0 0 -2.1,2.16 7.18,7.18 0 0 0 0,6.51 5.49,5.49 0 0 0 2.1,2.17 6,6 0 0 0 3,0.75 5.58,5.58 0 0 0 4.2,-1.65 z"
       id="path58" />
    <path
       class="cls-2"
       d="m 188.45626,309.07693 q 2.31,2.09 2.31,6.3 v 11.58 h -4.31 v -2.4 a 5.45,5.45 0 0 1 -2.43,2 9.58,9.58 0 0 1 -3.79,0.68 9.2,9.2 0 0 1 -3.88,-0.76 5.92,5.92 0 0 1 -2.57,-2.1 5.35,5.35 0 0 1 -0.91,-3.06 5.23,5.23 0 0 1 2,-4.27 q 2,-1.6 6.23,-1.61 h 5.11 v -0.36 a 4,4 0 0 0 -1.24,-3.18 5.33,5.33 0 0 0 -3.68,-1.12 10.86,10.86 0 0 0 -3.28,0.52 8.11,8.11 0 0 0 -2.72,1.45 l -1.84,-3.35 a 11.23,11.23 0 0 1 3.74,-1.81 16.53,16.53 0 0 1 4.62,-0.63 q 4.35,0 6.64,2.12 z m -4.22,14 a 4.33,4.33 0 0 0 1.91,-2.28 v -2.29 h -4.78 q -4,0 -4,2.63 a 2.36,2.36 0 0 0 1,2 4.58,4.58 0 0 0 2.77,0.74 6,6 0 0 0 3.13,-0.8 z"
       id="path60" />
    <path
       class="cls-2"
       d="m 208.58626,325.85693 a 5.43,5.43 0 0 1 -2,1 8.92,8.92 0 0 1 -2.46,0.33 7,7 0 0 1 -5,-1.7 6.56,6.56 0 0 1 -1.77,-5 v -9.41 h -3.26 v -3.7 h 3.26 v -4.51 h 4.62 v 4.51 h 5.29 v 3.7 h -5.29 v 9.39 a 3.16,3.16 0 0 0 0.7,2.2 2.63,2.63 0 0 0 2,0.76 4.09,4.09 0 0 0 2.59,-0.81 z"
       id="path62" />
    <path
       class="cls-2"
       d="m 223.82626,306.95693 v 4.4 a 6.17,6.17 0 0 0 -1.07,-0.11 5.58,5.58 0 0 0 -4.22,1.57 6.28,6.28 0 0 0 -1.51,4.53 v 9.58 h -4.63 v -19.75 h 4.4 v 2.9 c 1.34,-2.09 3.66,-3.12 7.03,-3.12 z"
       id="path64" />
    <path
       class="cls-2"
       d="m 227.96626,303.12693 a 2.73,2.73 0 0 1 0,-4 3,3 0 0 1 2.11,-0.79 3.08,3.08 0 0 1 2.11,0.75 2.46,2.46 0 0 1 0.85,1.91 2.76,2.76 0 0 1 -0.83,2 2.85,2.85 0 0 1 -2.13,0.83 3,3 0 0 1 -2.11,-0.7 z m -0.22,4.05 h 4.63 v 19.75 h -4.63 z"
       id="path66" />
    <path
       class="cls-2"
       d="m 269.28626,309.07693 c 1.46,1.44 2.18,3.61 2.18,6.49 v 11.32 h -4.62 v -10.68 a 5.78,5.78 0 0 0 -1.15,-3.91 4.14,4.14 0 0 0 -3.29,-1.31 4.78,4.78 0 0 0 -3.73,1.54 6.23,6.23 0 0 0 -1.41,4.38 v 10 h -4.62 v -10.7 a 5.83,5.83 0 0 0 -1.15,-3.91 4.16,4.16 0 0 0 -3.29,-1.31 4.86,4.86 0 0 0 -3.76,1.52 6.32,6.32 0 0 0 -1.38,4.4 v 10 h -4.61 v -19.73 h 4.4 v 2.52 a 7.21,7.21 0 0 1 2.78,-2 9.39,9.39 0 0 1 3.7,-0.7 9,9 0 0 1 3.94,0.83 6.53,6.53 0 0 1 2.72,2.46 8.16,8.16 0 0 1 3.14,-2.42 10.19,10.19 0 0 1 4.25,-0.87 8,8 0 0 1 5.9,2.08 z"
       id="path68" />
    <path
       class="cls-2"
       d="m 281.04626,325.89693 a 9.51,9.51 0 0 1 -3.75,-3.61 10.79,10.79 0 0 1 0,-10.45 9.53,9.53 0 0 1 3.75,-3.59 12,12 0 0 1 10.84,0 9.56,9.56 0 0 1 3.76,3.59 10.79,10.79 0 0 1 0,10.45 9.54,9.54 0 0 1 -3.76,3.61 12,12 0 0 1 -10.84,0 z m 9.62,-4.37 a 6.83,6.83 0 0 0 0,-9 5.66,5.66 0 0 0 -4.22,-1.7 5.58,5.58 0 0 0 -4.19,1.7 6.89,6.89 0 0 0 0,9 5.54,5.54 0 0 0 4.19,1.7 5.62,5.62 0 0 0 4.22,-1.7 z"
       id="path70" />
    <path
       class="cls-2"
       d="m 301.65626,303.12693 a 2.73,2.73 0 0 1 0,-4 3,3 0 0 1 2.11,-0.79 3.05,3.05 0 0 1 2.1,0.75 2.46,2.46 0 0 1 0.85,1.91 2.76,2.76 0 0 1 -0.83,2 2.84,2.84 0 0 1 -2.12,0.83 3,3 0 0 1 -2.11,-0.7 z m -0.2,4.05 h 4.62 v 19.75 h -4.62 z"
       id="path72" />
    <path
       class="cls-2"
       d="m 329.31626,309.13693 c 1.51,1.46 2.26,3.61 2.26,6.47 v 11.32 h -4.62 v -10.72 a 5.59,5.59 0 0 0 -1.22,-3.91 4.55,4.55 0 0 0 -3.48,-1.31 5.3,5.3 0 0 0 -4,1.54 6.09,6.09 0 0 0 -1.48,4.42 v 10 h -4.63 v -19.77 h 4.41 v 2.55 a 7.21,7.21 0 0 1 2.88,-2.07 10.37,10.37 0 0 1 3.92,-0.7 8.26,8.26 0 0 1 5.96,2.18 z"
       id="path74" />
    <path
       class="cls-2"
       d="m 356.13626,318.53693 h -15.5 a 5.35,5.35 0 0 0 2.13,3.45 6.92,6.92 0 0 0 4.27,1.28 7.22,7.22 0 0 0 5.37,-2.14 l 2.47,2.84 a 8.31,8.31 0 0 1 -3.36,2.41 12.35,12.35 0 0 1 -4.59,0.81 12.22,12.22 0 0 1 -5.73,-1.29 9.4,9.4 0 0 1 -3.83,-3.61 10.19,10.19 0 0 1 -1.35,-5.23 10.38,10.38 0 0 1 1.31,-5.2 9.38,9.38 0 0 1 3.65,-3.61 10.64,10.64 0 0 1 5.25,-1.29 10.39,10.39 0 0 1 5.16,1.27 9,9 0 0 1 3.55,3.59 10.91,10.91 0 0 1 1.28,5.35 c 0,0.32 -0.03,0.77 -0.08,1.37 z m -13.68,-6.57 a 5.53,5.53 0 0 0 -1.86,3.5 h 11.2 a 5.43,5.43 0 0 0 -1.81,-3.48 5.5,5.5 0 0 0 -3.77,-1.33 5.58,5.58 0 0 0 -3.76,1.31 z"
       id="path76" />
    <path
       class="cls-2"
       d="m 390.72626,327.33693 -3.27,-3.14 a 12.91,12.91 0 0 1 -8.69,3.1 12.63,12.63 0 0 1 -4.85,-0.88 8.13,8.13 0 0 1 -3.36,-2.46 5.64,5.64 0 0 1 -1.22,-3.57 6.74,6.74 0 0 1 1.4,-4.24 15,15 0 0 1 4.59,-3.61 11.16,11.16 0 0 1 -2.22,-2.9 6.29,6.29 0 0 1 -0.67,-2.79 5.43,5.43 0 0 1 2.06,-4.42 8.28,8.28 0 0 1 5.45,-1.69 7.73,7.73 0 0 1 5,1.54 5.07,5.07 0 0 1 1.89,4.16 5.51,5.51 0 0 1 -1.24,3.55 14,14 0 0 1 -4.05,3.15 l 5.59,5.32 a 17.55,17.55 0 0 0 1.44,-4.36 l 3.73,1.22 a 17.83,17.83 0 0 1 -2.33,5.92 l 3.26,3.1 z m -6,-5.77 -6.84,-6.55 a 10.61,10.61 0 0 0 -3.12,2.35 3.91,3.91 0 0 0 -0.91,2.53 3.05,3.05 0 0 0 1.44,2.63 6.53,6.53 0 0 0 3.81,1 8.59,8.59 0 0 0 5.62,-1.96 z m -7.17,-16.78 a 2.5,2.5 0 0 0 -0.89,2 3.21,3.21 0 0 0 0.48,1.69 13,13 0 0 0 1.85,2.16 13.24,13.24 0 0 0 3.09,-2.13 2.8,2.8 0 0 0 0.87,-2 2.25,2.25 0 0 0 -0.8,-1.81 3.34,3.34 0 0 0 -2.2,-0.66 3.59,3.59 0 0 0 -2.4,0.75 z"
       id="path78" />
    <path
       class="cls-2"
       d="m 438.03626,309.07693 c 1.45,1.44 2.18,3.61 2.18,6.49 v 11.32 h -4.63 v -10.68 a 5.83,5.83 0 0 0 -1.14,-3.91 4.16,4.16 0 0 0 -3.29,-1.31 4.81,4.81 0 0 0 -3.74,1.54 6.23,6.23 0 0 0 -1.41,4.38 v 10 h -4.62 v -10.7 a 5.78,5.78 0 0 0 -1.15,-3.91 4.14,4.14 0 0 0 -3.29,-1.31 4.82,4.82 0 0 0 -3.75,1.52 6.28,6.28 0 0 0 -1.39,4.4 v 10 h -4.62 v -19.73 h 4.4 v 2.52 a 7.18,7.18 0 0 1 2.77,-2 9.39,9.39 0 0 1 3.7,-0.7 9,9 0 0 1 3.94,0.83 6.47,6.47 0 0 1 2.72,2.46 8.16,8.16 0 0 1 3.14,-2.42 10.24,10.24 0 0 1 4.26,-0.87 8.06,8.06 0 0 1 5.92,2.08 z"
       id="path80" />
    <path
       class="cls-2"
       d="m 460.35626,309.07693 q 2.31,2.09 2.31,6.3 v 11.58 h -4.36 v -2.4 a 5.45,5.45 0 0 1 -2.43,2 9.58,9.58 0 0 1 -3.79,0.68 9.2,9.2 0 0 1 -3.88,-0.76 5.92,5.92 0 0 1 -2.57,-2.1 5.35,5.35 0 0 1 -0.91,-3.06 5.23,5.23 0 0 1 2,-4.27 q 2,-1.6 6.23,-1.61 h 5.11 v -0.36 a 4,4 0 0 0 -1.24,-3.18 5.33,5.33 0 0 0 -3.68,-1.12 10.86,10.86 0 0 0 -3.28,0.52 8.11,8.11 0 0 0 -2.72,1.45 l -1.81,-3.37 a 11.23,11.23 0 0 1 3.74,-1.81 16.53,16.53 0 0 1 4.62,-0.63 q 4.35,0.02 6.66,2.14 z m -4.22,14 a 4.33,4.33 0 0 0 1.91,-2.28 v -2.29 h -4.77 q -4,0 -4,2.63 a 2.36,2.36 0 0 0 1,2 4.58,4.58 0 0 0 2.77,0.74 6,6 0 0 0 3.09,-0.8 z"
       id="path82" />
    <path
       class="cls-2"
       d="m 480.45626,325.85693 a 5.43,5.43 0 0 1 -2,1 8.92,8.92 0 0 1 -2.46,0.33 7,7 0 0 1 -5,-1.7 6.56,6.56 0 0 1 -1.77,-5 v -9.41 h -3.27 v -3.7 h 3.26 v -4.51 h 4.62 v 4.51 h 5.29 v 3.7 h -5.29 v 9.39 a 3.16,3.16 0 0 0 0.7,2.2 2.63,2.63 0 0 0 2,0.76 4.09,4.09 0 0 0 2.59,-0.81 z"
       id="path84" />
    <path
       class="cls-2"
       d="m 495.69626,306.95693 v 4.4 a 6.17,6.17 0 0 0 -1.07,-0.11 5.58,5.58 0 0 0 -4.22,1.57 6.28,6.28 0 0 0 -1.51,4.53 v 9.58 h -4.63 v -19.75 h 4.4 v 2.9 c 1.34,-2.09 3.68,-3.12 7.03,-3.12 z"
       id="path86" />
    <path
       class="cls-2"
       d="m 499.84626,303.12693 a 2.71,2.71 0 0 1 0,-4 3,3 0 0 1 2.1,-0.79 3.08,3.08 0 0 1 2.11,0.75 2.46,2.46 0 0 1 0.85,1.91 2.76,2.76 0 0 1 -0.83,2 2.85,2.85 0 0 1 -2.13,0.83 3,3 0 0 1 -2.1,-0.7 z m -0.23,4.05 h 4.63 v 19.75 h -4.63 z"
       id="path88" />
    <path
       class="cls-2"
       d="m 541.15626,309.07693 c 1.46,1.44 2.18,3.61 2.18,6.49 v 11.32 h -4.62 v -10.68 a 5.78,5.78 0 0 0 -1.15,-3.91 4.14,4.14 0 0 0 -3.29,-1.31 4.78,4.78 0 0 0 -3.73,1.54 6.23,6.23 0 0 0 -1.41,4.38 v 10 h -4.62 v -10.7 a 5.83,5.83 0 0 0 -1.15,-3.91 4.14,4.14 0 0 0 -3.29,-1.31 4.86,4.86 0 0 0 -3.76,1.52 6.32,6.32 0 0 0 -1.38,4.4 v 10 h -4.63 v -19.73 h 4.4 v 2.52 a 7.21,7.21 0 0 1 2.78,-2 9.39,9.39 0 0 1 3.7,-0.7 9,9 0 0 1 3.94,0.83 6.53,6.53 0 0 1 2.72,2.46 8.16,8.16 0 0 1 3.14,-2.42 10.19,10.19 0 0 1 4.25,-0.87 8,8 0 0 1 5.92,2.08 z"
       id="path90" />
    <path
       class="cls-2"
       d="m 552.91626,325.89693 a 9.51,9.51 0 0 1 -3.75,-3.61 10.79,10.79 0 0 1 0,-10.45 9.53,9.53 0 0 1 3.75,-3.59 12,12 0 0 1 10.84,0 9.56,9.56 0 0 1 3.76,3.59 10.79,10.79 0 0 1 0,10.45 9.54,9.54 0 0 1 -3.76,3.61 12,12 0 0 1 -10.84,0 z m 9.62,-4.37 a 6.83,6.83 0 0 0 0,-9 5.66,5.66 0 0 0 -4.22,-1.7 5.58,5.58 0 0 0 -4.19,1.7 6.89,6.89 0 0 0 0,9 5.54,5.54 0 0 0 4.19,1.7 5.62,5.62 0 0 0 4.22,-1.7 z"
       id="path92" />
    <path
       class="cls-2"
       d="m 573.52626,303.12693 a 2.73,2.73 0 0 1 0,-4 3,3 0 0 1 2.11,-0.79 3.05,3.05 0 0 1 2.1,0.75 2.46,2.46 0 0 1 0.85,1.91 2.76,2.76 0 0 1 -0.83,2 2.84,2.84 0 0 1 -2.12,0.83 3,3 0 0 1 -2.11,-0.7 z m -0.22,4.05 h 4.62 v 19.75 h -4.62 z"
       id="path94" />
    <path
       class="cls-2"
       d="m 601.19626,309.13693 c 1.5,1.46 2.25,3.61 2.25,6.47 v 11.32 h -4.62 v -10.72 a 5.59,5.59 0 0 0 -1.22,-3.91 4.55,4.55 0 0 0 -3.48,-1.31 5.3,5.3 0 0 0 -4,1.54 6.09,6.09 0 0 0 -1.48,4.42 v 10 h -4.62 v -19.77 h 4.4 v 2.55 a 7.21,7.21 0 0 1 2.88,-2.07 10.37,10.37 0 0 1 3.92,-0.7 8.3,8.3 0 0 1 5.97,2.18 z"
       id="path96" />
    <path
       class="cls-2"
       d="m 628.00626,318.53693 h -15.5 a 5.35,5.35 0 0 0 2.13,3.45 6.92,6.92 0 0 0 4.27,1.28 7.22,7.22 0 0 0 5.37,-2.14 l 2.47,2.84 a 8.31,8.31 0 0 1 -3.36,2.41 12.35,12.35 0 0 1 -4.59,0.81 12.22,12.22 0 0 1 -5.73,-1.29 9.4,9.4 0 0 1 -3.83,-3.61 10.19,10.19 0 0 1 -1.35,-5.23 10.38,10.38 0 0 1 1.31,-5.2 9.38,9.38 0 0 1 3.65,-3.61 10.64,10.64 0 0 1 5.25,-1.29 10.39,10.39 0 0 1 5.16,1.27 9.08,9.08 0 0 1 3.55,3.59 10.91,10.91 0 0 1 1.28,5.35 c 0,0.32 -0.03,0.77 -0.08,1.37 z m -13.67,-6.57 a 5.53,5.53 0 0 0 -1.86,3.5 h 11.2 a 5.43,5.43 0 0 0 -1.81,-3.48 5.5,5.5 0 0 0 -3.77,-1.33 5.58,5.58 0 0 0 -3.76,1.31 z"
       id="path98" />
    <path
       class="cls-2"
       d="m 646.20626,325.89693 a 9.51,9.51 0 0 1 -3.75,-3.61 10.79,10.79 0 0 1 0,-10.45 9.53,9.53 0 0 1 3.75,-3.59 12,12 0 0 1 10.84,0 9.53,9.53 0 0 1 3.75,3.59 10.79,10.79 0 0 1 0,10.45 9.51,9.51 0 0 1 -3.75,3.61 12,12 0 0 1 -10.84,0 z m 9.62,-4.37 a 6.86,6.86 0 0 0 0,-9 5.67,5.67 0 0 0 -4.22,-1.7 5.61,5.61 0 0 0 -4.2,1.7 6.93,6.93 0 0 0 0,9 5.58,5.58 0 0 0 4.2,1.7 5.64,5.64 0 0 0 4.22,-1.7 z"
       id="path100" />
    <path
       class="cls-2"
       d="m 678.01626,306.95693 v 4.4 a 6.17,6.17 0 0 0 -1.07,-0.11 5.58,5.58 0 0 0 -4.22,1.57 6.28,6.28 0 0 0 -1.52,4.53 v 9.58 h -4.62 v -19.75 h 4.4 v 2.9 c 1.33,-2.09 3.68,-3.12 7.03,-3.12 z"
       id="path102" />
    <path
       class="cls-2"
       d="m 696.04626,309.07693 c 1.54,1.39 2.32,3.49 2.32,6.3 v 11.58 h -4.37 v -2.4 a 5.42,5.42 0 0 1 -2.42,2 9.58,9.58 0 0 1 -3.79,0.68 9.25,9.25 0 0 1 -3.89,-0.76 6,6 0 0 1 -2.57,-2.1 5.41,5.41 0 0 1 -0.9,-3.06 5.22,5.22 0 0 1 2,-4.27 q 2,-1.6 6.24,-1.61 h 5.1 v -0.36 a 4,4 0 0 0 -1.24,-3.18 5.3,5.3 0 0 0 -3.68,-1.12 10.75,10.75 0 0 0 -3.27,0.52 8.11,8.11 0 0 0 -2.72,1.45 l -1.81,-3.37 a 11.18,11.18 0 0 1 3.73,-1.81 16.65,16.65 0 0 1 4.63,-0.63 q 4.34,0.02 6.64,2.14 z m -4.21,14 a 4.32,4.32 0 0 0 1.9,-2.28 v -2.29 h -4.77 q -4,0 -4,2.63 a 2.38,2.38 0 0 0 1,2 4.61,4.61 0 0 0 2.78,0.74 6,6 0 0 0 3.09,-0.8 z"
       id="path104" />
    <path
       class="cls-2"
       d="m 704.27626,299.48693 h 4.63 v 27.44 h -4.63 z"
       id="path106" />
    <path
       class="cls-2"
       d="m 744.52626,299.48693 v 27.44 h -4.44 v -2.55 a 7.2,7.2 0 0 1 -2.83,2.11 9.52,9.52 0 0 1 -3.72,0.7 10.36,10.36 0 0 1 -5.12,-1.26 8.89,8.89 0 0 1 -3.57,-3.57 11.43,11.43 0 0 1 0,-10.59 9,9 0 0 1 3.57,-3.55 10.36,10.36 0 0 1 5.12,-1.26 9.48,9.48 0 0 1 3.59,0.66 7.25,7.25 0 0 1 2.77,2 v -10.13 z m -7.44,23 a 5.51,5.51 0 0 0 2.11,-2.17 7.18,7.18 0 0 0 0,-6.51 5.42,5.42 0 0 0 -2.11,-2.16 6.28,6.28 0 0 0 -6,0 5.42,5.42 0 0 0 -2.11,2.16 7.18,7.18 0 0 0 0,6.51 5.51,5.51 0 0 0 2.11,2.17 6.36,6.36 0 0 0 6,0 z"
       id="path108" />
    <path
       class="cls-2"
       d="m 769.08626,318.53693 h -15.5 a 5.35,5.35 0 0 0 2.13,3.45 6.9,6.9 0 0 0 4.27,1.28 7.18,7.18 0 0 0 5.36,-2.14 l 2.48,2.84 a 8.35,8.35 0 0 1 -3.37,2.41 13.39,13.39 0 0 1 -10.32,-0.48 9.38,9.38 0 0 1 -3.82,-3.61 10.89,10.89 0 0 1 0,-10.43 9.36,9.36 0 0 1 3.64,-3.61 10.7,10.7 0 0 1 5.26,-1.29 10.39,10.39 0 0 1 5.16,1.27 9.08,9.08 0 0 1 3.55,3.59 10.91,10.91 0 0 1 1.27,5.35 c -0.04,0.32 -0.06,0.77 -0.11,1.37 z m -13.63,-6.57 a 5.54,5.54 0 0 0 -1.87,3.5 h 11.17 a 5.39,5.39 0 0 0 -5.58,-4.81 5.56,5.56 0 0 0 -3.72,1.31 z"
       id="path110" />
    <path
       class="cls-2"
       d="m 783.80626,299.48693 h 4.65 v 27.44 h -4.62 z"
       id="path112" />
    <path
       class="cls-2"
       d="m 808.71626,309.07693 q 2.31,2.09 2.31,6.3 v 11.58 h -4.36 v -2.4 a 5.48,5.48 0 0 1 -2.42,2 9.63,9.63 0 0 1 -3.8,0.68 9.2,9.2 0 0 1 -3.88,-0.76 5.92,5.92 0 0 1 -2.57,-2.1 5.42,5.42 0 0 1 -0.91,-3.06 5.23,5.23 0 0 1 2,-4.27 q 2,-1.6 6.23,-1.61 h 5.14 v -0.36 a 4,4 0 0 0 -1.24,-3.18 5.31,5.31 0 0 0 -3.68,-1.12 10.75,10.75 0 0 0 -3.27,0.52 8,8 0 0 0 -2.72,1.45 l -1.81,-3.37 a 11.18,11.18 0 0 1 3.73,-1.81 16.63,16.63 0 0 1 4.62,-0.63 q 4.32,0.02 6.63,2.14 z m -4.26,14 a 4.33,4.33 0 0 0 1.91,-2.28 v -2.29 h -4.77 q -4,0 -4,2.63 a 2.38,2.38 0 0 0 1,2 4.61,4.61 0 0 0 2.78,0.74 5.94,5.94 0 0 0 3.08,-0.8 z"
       id="path114" />
    <path
       class="cls-2"
       d="m 832.25626,306.13693 v 1.19 h 5.44 v 3.75 h -5.24 v 15.9 h -4.62 v -15.9 h -3.26 v -3.7 h 3.26 v -1.3 a 6.74,6.74 0 0 1 1.85,-5 8.49,8.49 0 0 1 9.39,-0.76 l -1.29,3.48 a 4.44,4.44 0 0 0 -2.55,-0.82 q -2.97,-0.02 -2.98,3.16 z"
       id="path116" />
    <path
       class="cls-2"
       d="m 855.19626,306.95693 v 4.4 a 6.26,6.26 0 0 0 -1.07,-0.11 5.57,5.57 0 0 0 -4.22,1.57 6.28,6.28 0 0 0 -1.52,4.53 v 9.58 h -4.62 v -19.75 h 4.4 v 2.9 c 1.29,-2.09 3.67,-3.12 7.03,-3.12 z"
       id="path118" />
    <path
       class="cls-2"
       d="m 873.22626,309.07693 q 2.31,2.09 2.31,6.3 v 11.58 h -4.36 v -2.4 a 5.45,5.45 0 0 1 -2.43,2 9.55,9.55 0 0 1 -3.79,0.68 9.2,9.2 0 0 1 -3.88,-0.76 5.92,5.92 0 0 1 -2.57,-2.1 5.35,5.35 0 0 1 -0.91,-3.06 5.23,5.23 0 0 1 2,-4.27 q 2,-1.6 6.23,-1.61 h 5.11 v -0.36 a 4,4 0 0 0 -1.24,-3.18 5.31,5.31 0 0 0 -3.68,-1.12 10.75,10.75 0 0 0 -3.27,0.52 8,8 0 0 0 -2.72,1.45 l -1.82,-3.37 a 11.23,11.23 0 0 1 3.74,-1.81 16.58,16.58 0 0 1 4.62,-0.63 q 4.35,0.02 6.66,2.14 z m -4.22,14 a 4.33,4.33 0 0 0 1.91,-2.28 v -2.29 h -4.77 q -4,0 -4,2.63 a 2.36,2.36 0 0 0 1,2 4.6,4.6 0 0 0 2.77,0.74 6,6 0 0 0 3.09,-0.8 z"
       id="path120" />
    <path
       class="cls-2"
       d="m 898.65626,309.13693 c 1.5,1.46 2.26,3.61 2.26,6.47 v 11.32 h -4.63 v -10.72 a 5.54,5.54 0 0 0 -1.22,-3.91 4.52,4.52 0 0 0 -3.48,-1.31 5.32,5.32 0 0 0 -4,1.54 6.13,6.13 0 0 0 -1.48,4.42 v 10 h -4.65 v -19.77 h 4.4 v 2.55 a 7.31,7.31 0 0 1 2.89,-2.07 10.34,10.34 0 0 1 3.92,-0.7 8.26,8.26 0 0 1 5.99,2.18 z"
       id="path122" />
    <path
       class="cls-2"
       d="m 910.52626,325.89693 a 9.67,9.67 0 0 1 -3.81,-3.61 10.65,10.65 0 0 1 0,-10.45 9.7,9.7 0 0 1 3.79,-3.59 11.6,11.6 0 0 1 5.53,-1.29 10.67,10.67 0 0 1 5.13,1.18 7.76,7.76 0 0 1 3.31,3.4 l -3.55,2.08 a 5.67,5.67 0 0 0 -2.13,-2.06 6.22,6.22 0 0 0 -7.08,1 6.82,6.82 0 0 0 0,9 5.84,5.84 0 0 0 4.31,1.68 5.59,5.59 0 0 0 4.92,-2.73 l 3.55,2.07 a 8,8 0 0 1 -3.35,3.42 10.46,10.46 0 0 1 -5.09,1.2 11.63,11.63 0 0 1 -5.53,-1.3 z"
       id="path124" />
    <path
       class="cls-2"
       d="m 931.64626,325.89693 a 9.51,9.51 0 0 1 -3.75,-3.61 10.79,10.79 0 0 1 0,-10.45 9.53,9.53 0 0 1 3.75,-3.59 12,12 0 0 1 10.84,0 9.49,9.49 0 0 1 3.76,3.59 10.79,10.79 0 0 1 0,10.45 9.47,9.47 0 0 1 -3.76,3.61 12,12 0 0 1 -10.84,0 z m 9.62,-4.37 a 6.83,6.83 0 0 0 0,-9 5.65,5.65 0 0 0 -4.21,-1.7 5.58,5.58 0 0 0 -4.2,1.7 6.89,6.89 0 0 0 0,9 5.55,5.55 0 0 0 4.2,1.7 5.61,5.61 0 0 0 4.21,-1.7 z"
       id="path126" />
    <path
       class="cls-2"
       d="m 968.14626,308.21693 a 9,9 0 0 1 3.56,3.55 11.43,11.43 0 0 1 0,10.59 8.93,8.93 0 0 1 -3.56,3.57 10.49,10.49 0 0 1 -5.16,1.26 8,8 0 0 1 -6.33,-2.66 v 9.55 h -4.62 v -26.9 h 4.42 v 2.59 a 7.13,7.13 0 0 1 2.83,-2.11 9.52,9.52 0 0 1 3.72,-0.7 10.49,10.49 0 0 1 5.14,1.26 z m -1.48,13.31 a 6.93,6.93 0 0 0 0,-9 5.61,5.61 0 0 0 -4.2,-1.7 5.92,5.92 0 0 0 -3,0.76 5.42,5.42 0 0 0 -2.11,2.16 7.26,7.26 0 0 0 0,6.51 5.51,5.51 0 0 0 2.1,2.22 6,6 0 0 0 3,0.75 5.58,5.58 0 0 0 4.21,-1.7 z"
       id="path128" />
    <path
       class="cls-2"
       d="m 994.60626,309.13693 c 1.5,1.46 2.26,3.61 2.26,6.47 v 11.32 h -4.63 v -10.72 a 5.54,5.54 0 0 0 -1.22,-3.91 4.52,4.52 0 0 0 -3.48,-1.31 5.32,5.32 0 0 0 -4,1.54 6.13,6.13 0 0 0 -1.48,4.42 v 10 h -4.6 v -27.46 h 4.62 v 10 a 7.59,7.59 0 0 1 2.83,-1.86 10.27,10.27 0 0 1 3.76,-0.65 8.26,8.26 0 0 1 5.94,2.16 z"
       id="path130" />
    <path
       class="cls-2"
       d="m 1006.4563,325.89693 a 9.44,9.44 0 0 1 -3.75,-3.61 10.72,10.72 0 0 1 0,-10.45 9.46,9.46 0 0 1 3.75,-3.59 11.22,11.22 0 0 1 5.4,-1.29 11.35,11.35 0 0 1 5.44,1.29 9.53,9.53 0 0 1 3.75,3.59 10.79,10.79 0 0 1 0,10.45 9.51,9.51 0 0 1 -3.75,3.61 11.35,11.35 0 0 1 -5.44,1.29 11.22,11.22 0 0 1 -5.4,-1.29 z m 9.62,-4.37 a 6.86,6.86 0 0 0 0,-9 5.67,5.67 0 0 0 -4.22,-1.7 5.61,5.61 0 0 0 -4.2,1.7 6.93,6.93 0 0 0 0,9 5.58,5.58 0 0 0 4.2,1.7 5.64,5.64 0 0 0 4.17,-1.7 z"
       id="path132" />
    <path
       class="cls-2"
       d="m 1043.9863,309.13693 c 1.51,1.46 2.26,3.61 2.26,6.47 v 11.32 h -4.63 v -10.72 a 5.54,5.54 0 0 0 -1.22,-3.91 4.52,4.52 0 0 0 -3.47,-1.31 5.33,5.33 0 0 0 -4,1.54 6.13,6.13 0 0 0 -1.47,4.42 v 10 h -4.63 v -19.77 h 4.4 v 2.55 a 7.31,7.31 0 0 1 2.89,-2.07 10.34,10.34 0 0 1 3.92,-0.7 8.26,8.26 0 0 1 5.95,2.18 z"
       id="path134" />
    <path
       class="cls-2"
       d="m 1052.3463,303.12693 a 2.73,2.73 0 0 1 0,-4 3,3 0 0 1 2.11,-0.79 3.08,3.08 0 0 1 2.11,0.75 2.49,2.49 0 0 1 0.89,1.99 2.8,2.8 0 0 1 -0.83,2 2.88,2.88 0 0 1 -2.13,0.83 3,3 0 0 1 -2.15,-0.78 z m -0.22,4.05 h 4.62 v 19.75 h -4.62 z"
       id="path136" />
    <path
       class="cls-2"
       d="m 1081.3063,318.53693 h -15.5 a 5.39,5.39 0 0 0 2.13,3.45 6.92,6.92 0 0 0 4.27,1.28 7.22,7.22 0 0 0 5.37,-2.14 l 2.48,2.84 a 8.41,8.41 0 0 1 -3.37,2.41 12.35,12.35 0 0 1 -4.59,0.81 12.22,12.22 0 0 1 -5.73,-1.29 9.4,9.4 0 0 1 -3.83,-3.61 10.19,10.19 0 0 1 -1.35,-5.23 10.38,10.38 0 0 1 1.31,-5.2 9.38,9.38 0 0 1 3.65,-3.61 10.64,10.64 0 0 1 5.25,-1.29 10.39,10.39 0 0 1 5.16,1.27 9,9 0 0 1 3.55,3.59 10.91,10.91 0 0 1 1.28,5.35 c 0,0.32 -0.03,0.77 -0.08,1.37 z m -13.66,-6.57 a 5.5,5.5 0 0 0 -1.87,3.5 h 11.21 a 5.76,5.76 0 0 0 -9.34,-3.5 z"
       id="path138" />
  </g>
  <g
     id="g1157"
     transform="translate(-81.22547,-104.00113)">
    <path
       class="cls-1"
       d="m 107.62547,178.54227 v 20.53 h 41.20999 v 20.41 h -41.20999 v 32 h -26.4 v -93.34 h 73.20999 v 20.4 z"
       id="path6"
       style="fill:#53bfcc;fill-opacity:1" />
    <path
       class="cls-1"
       d="m 207.64546,226.68227 h -14.42 v 24.8 h -26.39 v -93.34 h 42.68 q 12.66,0 22,4.2 a 31.63,31.63 0 0 1 19.47,30.33 32.55,32.55 0 0 1 -4.76,17.67 32,32 0 0 1 -13.54,11.8 l 20.14,29.34 h -28.24 z m 12.58,-44.14 q -4.18,-3.55 -12.31,-3.55 h -14.69 v 27.34 h 14.67 q 8.13,0 12.27,-3.54 4.14,-3.54 4.13,-10.07 0.02,-6.57 -4.07,-10.18 z"
       id="path8"
       style="fill:#53bfcc;fill-opacity:1" />
    <path
       class="cls-1"
       d="m 328.06547,233.35227 h -39.47001 l -7.37,18.13 h -26.91 l 41.21,-93.34 h 26.00001 l 41.34,93.34 h -27.47 z m -7.74,-19.47 -12.00001,-29.89 -12,29.88 z"
       id="path10"
       style="fill:#53bfcc;fill-opacity:1" />
    <path
       class="cls-1"
       d="m 459.14547,158.14227 v 93.34 h -21.73 l -41.19,-49.74 v 49.74 h -25.89 v -93.34 h 21.74 l 41.2,49.74 v -49.74 z"
       id="path12"
       style="fill:#53bfcc;fill-opacity:1" />
    <path
       class="cls-1"
       d="m 495.22547,247.15227 a 46.44,46.44 0 0 1 -18.34,-17.27 47.68,47.68 0 0 1 -6.66,-25.07 47.66,47.66 0 0 1 6.66,-25.07 46.37,46.37 0 0 1 18.34,-17.27 55.18,55.18 0 0 1 26.34,-6.2 56.6,56.6 0 0 1 23.07,4.53 44.45,44.45 0 0 1 17.07,13.07 l -16.81,15.2 q -9.06,-10.93 -22,-10.93 a 27.2,27.2 0 0 0 -13.54,3.33 23.2,23.2 0 0 0 -9.2,9.4 28.93,28.93 0 0 0 -3.26,13.94 28.86,28.86 0 0 0 3.26,13.93 23.14,23.14 0 0 0 9.2,9.4 27.1,27.1 0 0 0 13.54,3.34 q 12.93,0 22,-10.94 l 16.81,15.21 a 44.43,44.43 0 0 1 -17.07,13.06 56.44,56.44 0 0 1 -23.07,4.54 55.3,55.3 0 0 1 -26.34,-6.2 z"
       id="path14"
       style="fill:#53bfcc;fill-opacity:1" />
    <path
       class="cls-1"
       d="m 712.36547,226.68227 h -14.41 v 24.8 h -26.4 v -93.34 h 42.67 q 12.68,0 22,4.2 a 31.63,31.63 0 0 1 19.47,30.33 32.47,32.47 0 0 1 -4.74,17.67 32,32 0 0 1 -13.53,11.8 l 20.13,29.34 h -28.26 z m 12.53,-44.14 c -2.76,-2.4 -6.84,-3.6 -12.27,-3.6 h -14.67 v 27.34 h 14.67 c 5.43,0 9.51,-1.18 12.27,-3.54 2.76,-2.36 4.14,-5.71 4.14,-10.07 0,-4.36 -1.38,-7.68 -4.14,-10.13 z"
       id="path16"
       style="fill:#393189" />
    <path
       class="cls-1"
       d="m 832.77547,233.35227 h -39.47 l -7.33,18.13 h -26.94 l 41.19,-93.34 h 26 l 41.34,93.34 h -27.45 z m -7.73,-19.47 -12,-29.89 -12,29.88 z"
       id="path18"
       style="fill:#393189" />
    <path
       class="cls-1"
       d="m 875.05547,158.14227 h 26.4 v 72.41 h 44.54 v 20.93 h -70.94 z"
       id="path20"
       style="fill:#393189" />
    <path
       class="cls-1"
       d="m 956.39547,158.14227 h 26.4 v 93.34 h -26.4 z"
       id="path22"
       style="fill:#393189" />
    <path
       class="cls-1"
       d="m 1021.4755,179.07227 h -28.67003 v -20.93 h 83.61003 v 20.93 h -28.54 v 72.41 h -26.4 z"
       id="path24"
       style="fill:#393189" />
    <path
       class="cls-1"
       d="m 1161.2255,231.08227 v 20.4 h -75 v -93.34 h 73.22 v 20.4 h -47.08 v 15.73 h 41.48 v 19.72 h -41.48 v 17.07 z"
       id="path26"
       style="fill:#393189" />
    <path
       class="cls-1"
       d="m 1096.3755,128.56227 c -0.4,0.95 -0.76,1.91 -1.09,2.87 1,0.53 2.06,1 3.14,1.49 a 40.23,40.23 0 0 0 52.71,-21.39001 c 0.4,-1 0.76,-1.9 1.08,-2.87 -1,-0.53 -2.06,-1 -3.14,-1.49 a 40.22,40.22 0 0 0 -52.7,21.39001 z"
       id="path28"
       style="fill:#393189" />
    <path
       class="cls-2"
       d="m 573.96547,201.99227 c -0.68,0.19 -1.34,0.41 -2,0.66 0.15,0.76 0.34,1.53 0.56,2.3 a 27.47,27.47 0 0 0 34,18.76 c 0.68,-0.2 1.34,-0.42 2,-0.66 -0.15,-0.77 -0.34,-1.54 -0.56,-2.31 a 27.45,27.45 0 0 0 -34,-18.75 z"
       id="path30"
       style="fill:#58b58d" />
    <path
       class="cls-1"
       d="m 597.06547,224.99227 a 27.75,27.75 0 0 1 -24.76,-20 c -0.22,-0.75 -0.41,-1.53 -0.57,-2.33 v -0.2 l 0.2,-0.07 c 0.65,-0.25 1.33,-0.47 2,-0.67 v 0 a 27.75,27.75 0 0 1 34.29,19 c 0.21,0.74 0.4,1.53 0.56,2.32 v 0.21 l -0.19,0.07 c -0.66,0.24 -1.33,0.47 -2,0.66 a 27.49,27.49 0 0 1 -9.53,1.01 z m -24.84,-22.15 c 0.15,0.71 0.32,1.41 0.52,2.08 a 27.25,27.25 0 0 0 33.71,18.59 c 0.59,-0.17 1.19,-0.36 1.77,-0.58 -0.15,-0.71 -0.32,-1.41 -0.51,-2.08 a 27.26,27.26 0 0 0 -33.71,-18.59 v 0 c -0.57,0.18 -1.17,0.37 -1.78,0.58 z"
       id="path32"
       style="fill:#393189" />
    <path
       class="cls-1"
       d="m 662.56547,198.43227 c -0.72,-0.19 -1.92,-0.51 -2.57,-0.64 a 62.94,62.94 0 0 0 -13,-1.53 36.38,36.38 0 0 0 -11.54,1.73 c -6.63,0 -13.93,-0.08 -21,-0.15 -7.07,-0.07 -14.29,-0.15 -20.83,-0.15 a 33.61,33.61 0 0 0 -10.4,-1.52 78.83,78.83 0 0 0 -14.23,1.61 c -0.71,0.14 -2.09,0.51 -2.8,0.71 3.95,-23.94 24.53,-41.94 48.05,-41.94 a 48.47,48.47 0 0 1 32.03,12.44 50.74,50.74 0 0 1 16.51,29.5 z"
       id="path34"
       style="fill:#393189" />
    <path
       class="cls-1"
       d="m 614.22547,156.83227 a 48.16,48.16 0 0 1 31.88,12.38 50.49,50.49 0 0 1 16.35,28.9 c -0.76,-0.2 -1.78,-0.47 -2.39,-0.6 a 63.3,63.3 0 0 0 -13.11,-1.52 36.66,36.66 0 0 0 -11.54,1.72 c -6.63,0 -13.9,-0.08 -20.94,-0.15 -7.04,-0.07 -14.26,-0.14 -20.79,-0.15 a 33.87,33.87 0 0 0 -10.46,-1.52 79.26,79.26 0 0 0 -14.28,1.62 c -0.59,0.11 -1.62,0.38 -2.4,0.59 a 50.74,50.74 0 0 1 16.08,-28.9 47.3,47.3 0 0 1 31.6,-12.37 m 0,-0.56 c -24.46,0 -44.74,19.16 -48.39,42.6 0,0 2.24,-0.63 3.19,-0.81 a 76.85,76.85 0 0 1 14.2,-1.61 33.21,33.21 0 0 1 10.37,1.54 c 13.11,0 28.61,0.3 41.91,0.3 a 36.41,36.41 0 0 1 11.45,-1.72 63.38,63.38 0 0 1 13,1.52 c 0.95,0.2 3,0.78 3.19,0.81 -3.67,-23.41 -24.47,-42.6 -48.92,-42.6 z"
       id="path36"
       style="fill:#393189" />
    <path
       class="cls-3"
       d="m 635.49547,198.16227 c -6.31,0 -13.83,0 -21.09,-0.07 -7.26,-0.07 -14.64,-0.1 -20.9,-0.1 a 38,38 0 0 0 -11.86,-1.69 c -1.46,0 -3,0.06 -4.63,0.17 a 37.83,37.83 0 0 1 36.78,-28.7 c 17.66,0 33.63,12.05 38.12,28.7 -1.43,-0.1 -2.81,-0.15 -4.12,-0.15 a 38.93,38.93 0 0 0 -12.3,1.84 z"
       id="path38"
       style="fill:#53bfcc" />
    <path
       class="cls-1"
       d="m 613.79547,168.09227 a 39.82,39.82 0 0 1 24,8.27 38.4,38.4 0 0 1 13.72,19.85 q -2,-0.12 -3.75,-0.12 a 39.35,39.35 0 0 0 -12.35,1.79 c -6.31,0 -13.81,0 -21.07,-0.06 -7.26,-0.06 -14.58,-0.06 -20.82,-0.07 a 38.44,38.44 0 0 0 -11.91,-1.69 c -1.35,0 -2.75,0.05 -4.26,0.15 a 37.54,37.54 0 0 1 36.44,-28.12 m 0,-0.56 a 38.07,38.07 0 0 0 -37.14,29.29 c 1.67,-0.12 3.34,-0.2 5,-0.2 a 37.78,37.78 0 0 1 11.82,1.69 c 12.6,0 29.49,0.13 42.07,0.13 a 38.78,38.78 0 0 1 12.26,-1.8 c 1.49,0 3,0.07 4.49,0.18 -4.31,-16.69 -20.51,-29.29 -38.49,-29.29 z"
       id="path40"
       style="fill:#393189" />
    <path
       class="cls-4"
       d="m 614.70547,218.46227 c -0.59,-0.78 -1.23,-1.72 -2,-2.79 -4.25,-6.2 -10.65,-15.55 -22.18,-18.44 1.7,-11.64 11.4,-19.79 23.7,-19.83 h 0.1 c 11.86,0 22.15,8.55 24.06,19.93 -11,2.31 -18.55,13.59 -22.22,19 -0.59,0.89 -1.07,1.6 -1.46,2.13 z"
       id="path42"
       style="fill:#ef7c56" />
    <path
       class="cls-1"
       d="m 614.30547,177.68227 a 24.45,24.45 0 0 1 15.72,5.7 23.37,23.37 0 0 1 8,13.73 c -10.93,2.46 -18.47,13.67 -22.13,19.1 -0.47,0.69 -0.87,1.29 -1.21,1.78 -0.53,-0.72 -1.09,-1.55 -1.73,-2.48 -4.22,-6.19 -10.6,-15.52 -22.07,-18.52 a 22.46,22.46 0 0 1 7.67,-13.76 24.36,24.36 0 0 1 15.67,-5.55 h 0.1 m 0,-0.56 h -0.1 c -12.34,0.05 -22.37,8.43 -24,20.32 13.86,3.34 20.48,16.34 24.45,21.48 2.86,-3.7 11,-18.82 24,-21.37 a 24.52,24.52 0 0 0 -24.38,-20.43 z"
       id="path44"
       style="fill:#393189" />
    <path
       class="cls-2"
       d="m 654.97547,201.99227 c 0.68,0.19 1.34,0.41 2,0.66 -0.15,0.77 -0.34,1.54 -0.56,2.3 a 27.47,27.47 0 0 1 -34,18.76 c -0.68,-0.2 -1.34,-0.42 -2,-0.66 0.15,-0.77 0.34,-1.54 0.56,-2.31 a 27.46,27.46 0 0 1 34,-18.75 z"
       id="path46"
       style="fill:#58b58d" />
    <path
       class="cls-1"
       d="m 622.32547,223.99227 c -0.68,-0.19 -1.35,-0.42 -2,-0.66 l -0.19,-0.07 v -0.21 c 0.16,-0.79 0.35,-1.57 0.56,-2.32 a 27.75,27.75 0 0 1 34.35,-18.94 v 0 c 0.67,0.2 1.35,0.42 2,0.67 l 0.2,0.07 v 0.2 c -0.16,0.8 -0.35,1.58 -0.57,2.33 a 27.7,27.7 0 0 1 -34.35,18.93 z m 32.58,-21.72 v 0 a 27.26,27.26 0 0 0 -33.68,18.58 c -0.19,0.67 -0.36,1.37 -0.51,2.08 0.58,0.22 1.18,0.41 1.77,0.58 a 27.25,27.25 0 0 0 33.71,-18.59 c 0.2,-0.67 0.37,-1.36 0.52,-2.08 -0.61,-0.21 -1.21,-0.4 -1.81,-0.58 z"
       id="path48"
       style="fill:#393189" />
    <path
       class="cls-1"
       d="m 662.93547,199.74227 c 0,0 -2.48,6 -2.78,6.76 -5.18,12.25 -20.75,28.58 -46.15,28.26 -25,-0.31 -41.21,-16 -46.26,-28.48 -0.33,-0.81 -1.75,-6.7 -1.75,-6.7 a 34.88,34.88 0 0 0 0,7.08 c 1.86,27.24 19.8,46.69 47.92,46.69 28.12,0 47.17,-21.85 49,-46.69 a 30.81,30.81 0 0 0 0.02,-6.92 z"
       id="path50"
       style="fill:#393189" />
  </g>
</svg>
