<svg id="Calque_1" data-name="Calque 1" xmlns="http://www.w3.org/2000/svg" viewBox="0 0 1280 1276.89"><defs><style>.cls-1{fill:#58b58d;}.cls-2{fill:#393189;}.cls-3{fill:#53bfcc;}.cls-4{fill:#ef7c56;}</style></defs><path class="cls-1" d="M107.24,601.89q-13.35,3.86-26.15,8.63c2,10.13,4.44,20.25,7.36,30.35C143.87,832.52,344.16,943,535.82,887.55q13.33-3.87,26.14-8.64c-2-10.13-4.44-20.25-7.36-30.35C499.18,656.91,298.89,546.47,107.24,601.89Z"/><path class="cls-2" d="M411,904.17C262.52,894,129.05,792.83,85.37,641.76c-2.85-9.83-5.35-20.12-7.43-30.61l-.53-2.68,2.56-1c8.62-3.22,17.49-6.15,26.37-8.72h0c193-55.83,395.51,55.81,451.33,248.87,2.86,9.86,5.35,20.16,7.43,30.61l.54,2.69-2.56.95c-8.62,3.21-17.49,6.14-26.38,8.71A362.7,362.7,0,0,1,411,904.17ZM84.79,612.59C86.73,622,89,631.16,91.54,640c54.83,189.66,253.74,299.32,443.39,244.49,7.84-2.27,15.69-4.83,23.34-7.61-1.93-9.36-4.2-18.56-6.76-27.4C496.68,659.82,297.75,550.16,108.13,605h0C100.28,607.24,92.45,609.8,84.79,612.59Z"/><path class="cls-2" d="M1272.53,554.61c-9.43-2.51-25.22-6.72-33.79-8.53-63.9-13.5-120-20.06-171.54-20.06-55.18,0-104.62,7.4-151.15,22.61-87.28,0-183.22-1-276-2-92.41-.94-188-1.92-274-1.93-41.06-13.38-86-19.9-137.47-19.9-66.44,0-135,11.34-187.24,21.22-9.27,1.75-27.52,6.67-36.8,9.22C56.43,240.4,327.15,3.67,636.54,3.67c152.79,0,302.57,58.16,421.73,163.78,115.66,102.51,192.64,240.08,217.21,388Z"/><path class="cls-2" d="M636.54,7.35c151.89,0,300.8,57.83,419.29,162.85,113.56,100.64,189.63,235.28,215.06,380.17-10-2.65-23.44-6.21-31.39-7.89-64.15-13.54-120.52-20.13-172.3-20.13-55.35,0-105,7.39-151.73,22.6-87.13,0-182.86-1-275.45-2-92.19-.94-187.51-1.92-273.39-1.93-41.29-13.39-86.46-19.9-138-19.9-66.75,0-135.49,11.37-187.92,21.28-7.71,1.46-21.34,5-31.54,7.78C34.46,404.81,109.25,270.17,220.56,170,337.19,65.13,484.92,7.35,636.54,7.35m0-7.35C314.76,0,48.11,252.1,0,560.35c.05,0,29.52-8.32,42-10.68,62.25-11.76,125.33-21.15,186.56-21.15,47.14,0,93.17,5.56,136.88,19.9,172.42,0,376.34,3.85,551.18,3.88,48.47-15.92,98.83-22.6,150.56-22.6,55.56,0,112.71,7.71,170.78,20,12.48,2.64,40.14,10.34,42,10.68C1231.64,252.41,958.06,0,636.54,0Z"/><path class="cls-3" d="M916.51,551c-83,0-181.83-.42-277.4-.81-94.62-.39-192.46-.79-274.83-.81-45.84-15-96.89-22.25-156.07-22.25-19.18,0-39.12.74-60.8,2.26,56-222.54,254.11-377.53,483.66-377.53,232.32,0,442.35,158.45,501.44,377.5-18.75-1.27-37-1.93-54.2-1.93C1017.91,527.39,965,535.11,916.51,551Z"/><path class="cls-2" d="M631.07,155.49c112.29,0,224.56,38.63,316.14,108.77,88,67.42,151.79,159.81,180.38,261.06-17-1.06-33.54-1.6-49.27-1.6-60.57,0-113.71,7.71-162.39,23.56-83,0-181.71-.41-277.18-.8-94.28-.39-191.74-.79-273.9-.81-46.05-15-97.31-22.25-156.63-22.25-17.76,0-36.17.63-56,1.93,57.21-218.27,252.69-369.86,478.85-369.86m0-7.35c-238.59,0-435,163.39-488.44,385.25,22-1.65,43.89-2.62,65.59-2.62,53.45,0,105.71,5.91,155.46,22.25,165.8,0,388,1.61,553.41,1.61,51.66-17,105.77-23.56,161.23-23.56,19.54,0,39.23.82,59,2.28-56.71-219.54-269.7-385.21-506.3-385.21Z"/><path class="cls-4" d="M643.09,818c-7.73-10.32-16.19-22.66-25.8-36.71-55.84-81.55-140-204.5-291.67-242.54,22-153.13,149.34-260.2,310.92-260.84h1.29c156,0,291.37,112.45,316.45,262.16-144.09,30.36-244,178.75-292.2,250.35C654.5,801.69,648.24,811,643.09,818Z"/><path class="cls-2" d="M637.85,281.58a321.85,321.85,0,0,1,206.71,75c55.65,46.72,92.93,110.65,105.5,180.65C806.37,569.5,707.12,716.94,659,788.38c-6.18,9.17-11.47,17-16,23.39-6.88-9.4-14.36-20.33-22.73-32.55C564.56,697.78,480.71,575.31,329.74,536c11-71,46.7-135.06,101-180.92,55.75-47.1,128.85-73.2,205.84-73.51h1.3m0-7.35h-1.33c-162.3.64-294.17,110.91-315,267.29,182.31,44,269.4,215,321.58,282.56C680.64,775.45,788,576.46,958.47,543,934.55,389.22,798.1,274.23,637.85,274.23Z"/><path class="cls-1" d="M1172.76,601.89q13.35,3.87,26.15,8.64c-2,10.13-4.44,20.25-7.36,30.35C1136.13,832.53,935.84,943,744.18,887.55q-13.33-3.85-26.14-8.63c2-10.13,4.44-20.25,7.36-30.35C780.82,656.92,981.11,546.48,1172.76,601.89Z"/><path class="cls-2" d="M743.29,890.64c-8.89-2.57-17.76-5.5-26.38-8.71l-2.56-.95.54-2.69c2.08-10.45,4.57-20.75,7.43-30.61,55.82-193.06,258.3-304.7,451.33-248.87h0c8.88,2.57,17.75,5.5,26.37,8.71l2.56,1-.53,2.68c-2.08,10.49-4.58,20.78-7.43,30.61C1151,792.84,1017.48,894,869,904.18A362.7,362.7,0,0,1,743.29,890.64ZM1171.87,605h0c-189.62-54.81-388.55,54.85-443.38,244.48-2.56,8.84-4.83,18-6.76,27.39,7.65,2.79,15.5,5.34,23.34,7.62C934.72,939.3,1133.63,829.63,1188.46,640c2.55-8.81,4.81-18,6.75-27.38C1187.55,609.81,1179.72,607.25,1171.87,605Z"/><path class="cls-2" d="M1277.51,571.81s-32.72,79.57-36.67,88.91c-68.07,161-272.93,375.84-606.94,371.68C305.09,1028.3,91.81,821.58,25.38,657.87,21.05,647.2,2.43,569.69,2.43,569.69c-4.34,31.35-1.93,64.76,0,93.08,24.43,358.29,260.38,614.12,630.29,614.12s620.4-287.32,644.47-614.12C1279.7,628.74,1281.85,603.15,1277.51,571.81Z"/></svg>