<?xml version="1.0" encoding="UTF-8" standalone="no"?>
<svg
   xmlns:dc="http://purl.org/dc/elements/1.1/"
   xmlns:cc="http://creativecommons.org/ns#"
   xmlns:rdf="http://www.w3.org/1999/02/22-rdf-syntax-ns#"
   xmlns:svg="http://www.w3.org/2000/svg"
   xmlns="http://www.w3.org/2000/svg"
   xmlns:sodipodi="http://sodipodi.sourceforge.net/DTD/sodipodi-0.dtd"
   xmlns:inkscape="http://www.inkscape.org/namespaces/inkscape"
   version="1.1"
   id="svg2"
   xml:space="preserve"
   width="665.49689"
   height="408.30426"
   viewBox="0 0 665.49688 408.30426"
   sodipodi:docname="logo-up.svg"
   inkscape:version="1.0.2 (e86c870879, 2021-01-15)"><metadata
     id="metadata8"><rdf:RDF><cc:Work
         rdf:about=""><dc:format>image/svg+xml</dc:format><dc:type
           rdf:resource="http://purl.org/dc/dcmitype/StillImage" /><dc:title></dc:title></cc:Work></rdf:RDF></metadata><defs
     id="defs6"><clipPath
       clipPathUnits="userSpaceOnUse"
       id="clipPath18"><path
         d="M 0,595.28 H 841.89 V 0 H 0 Z"
         id="path16" /></clipPath></defs><sodipodi:namedview
     pagecolor="#ffffff"
     bordercolor="#666666"
     borderopacity="1"
     objecttolerance="10"
     gridtolerance="10"
     guidetolerance="10"
     inkscape:pageopacity="0"
     inkscape:pageshadow="2"
     inkscape:window-width="2560"
     inkscape:window-height="1377"
     id="namedview4"
     showgrid="false"
     inkscape:zoom="1.2694651"
     inkscape:cx="-147.38741"
     inkscape:cy="219.47175"
     inkscape:window-x="-8"
     inkscape:window-y="-8"
     inkscape:window-maximized="1"
     inkscape:current-layer="g10" /><g
     id="g10"
     inkscape:groupmode="layer"
     inkscape:label="POITIERS UNIVERSITE CMJN 2014"
     transform="matrix(1.3333333,0,0,-1.3333333,-200.14836,628.82682)"><g
       id="g12"
       transform="translate(-3.7598282,30.078626)"><g
         id="g14"
         clip-path="url(#clipPath18)"><g
           id="g20"
           transform="translate(432.2734,378.123)"><path
             d="M 0,0 H -2.515 V 7.095 H 0 C 1.996,7.095 3.591,5.512 3.591,3.544 3.591,1.59 1.996,0 0,0 m 0,-48.637 h -2.515 v 7.084 H 0 c 1.996,0 3.591,-1.584 3.591,-3.54 0,-1.97 -1.595,-3.544 -3.591,-3.544 M -40.305,24.202 V 7.095 h 10.354 23.58 v -7.134 h -33.934 v -41.514 h 10.354 23.58 v -7.133 H -40.305 V -69.909 H 24.31 v 94.111 z"
             style="fill:#bf1b2c;fill-opacity:1;fill-rule:nonzero;stroke:none"
             id="path22" /></g><g
           id="g24"
           transform="translate(153.8711,294.1895)"><path
             d="M 0,0 V 1.71 L 45.292,1.712 45.291,0.001 C 31.326,-0.12 28.454,-2.561 28.455,-13.912 l 0.004,-41.502 c 0.004,-17.213 4.309,-24.537 20.624,-24.534 17.363,0.002 23.628,9.521 23.625,29.662 l -0.003,33.201 C 72.704,-5.609 67.876,-0.359 56.52,0.005 l -0.004,1.71 H 89.932 V 0.004 C 79.751,-0.482 75.051,-6.099 75.057,-17.572 l 0.002,-31.737 C 75.062,-71.646 67.491,-81.9 47.65,-81.9 c -12.659,-0.003 -21.536,3.415 -26.629,10.372 -3.916,5.247 -4.046,12.451 -4.047,22.338 l -0.005,35.275 C 16.967,-2.563 13.967,-0.122 0,0"
             style="fill:#bf1b2c;fill-opacity:1;fill-rule:nonzero;stroke:none"
             id="path26" /></g><g
           id="g28"
           transform="translate(239.7588,216.8682)"><path
             d="m 0,0 h 3.394 c 5.615,0.001 6.787,0.979 6.788,6.104 l -0.003,32.714 c 10e-4,6.837 -1.436,8.667 -9.267,8.667 -0.524,0 -1.043,-0.003 -1.697,10e-4 l -0.001,1.706 20.102,0.491 0.002,-15.87 0.522,-0.121 c 3.264,10.986 9.916,16.6 18.925,16.601 10.443,0.003 15.402,-6.342 15.4,-19.281 L 54.168,6.108 c -10e-4,-5.126 1.178,-6.1 6.658,-6.103 l 3.655,-0.001 v -1.707 l -28.98,-0.003 v 1.71 l 3.137,-0.002 c 5.353,0.002 6.525,0.979 6.523,6.105 l -0.002,31.251 c 10e-4,7.322 -2.875,11.106 -8.485,11.107 -9.396,0 -17.357,-10.866 -17.355,-29.91 L 19.322,6.105 C 19.318,1.223 20.364,0.002 25.716,0.003 L 28.975,0.004 28.979,-1.707 0,-1.71 Z"
             style="fill:#bf1b2c;fill-opacity:1;fill-rule:nonzero;stroke:none"
             id="path30" /></g><g
           id="g32"
           transform="translate(323.8696,281.3398)"><path
             d="m 0,0 c -0.002,-3.542 -2.743,-5.982 -6.399,-5.982 -3.524,0 -6.266,2.562 -6.265,5.98 -10e-4,3.297 2.742,5.86 6.267,5.86 C -2.877,5.858 0,3.297 0,0 m -18.591,-16.982 c -0.519,10e-4 -1.043,0 -1.697,0.002 v 1.708 l 20.101,0.488 0.005,-43.576 c 0.001,-4.882 1.047,-6.106 6.395,-6.104 h 3.263 l 10e-4,-1.707 -28.976,-0.003 v 1.708 l 3.394,-0.001 c 5.61,0.002 6.787,0.979 6.784,6.106 l 10e-4,32.714 c -0.003,6.837 -1.436,8.666 -9.271,8.665"
             style="fill:#bf1b2c;fill-opacity:1;fill-rule:nonzero;stroke:none"
             id="path34" /></g><g
           id="g36"
           transform="translate(342.7393,253.9863)"><path
             d="m 0,0 c -3.134,7.444 -6.267,10.253 -14.362,10.373 v 1.708 l 31.327,0.005 V 10.378 C 10.439,10.376 7.179,9.154 7.178,6.836 7.177,5.003 7.569,3.418 8.221,1.954 l 13.321,-32.959 10.697,26.126 c 1.307,3.052 1.832,5.979 1.826,8.664 0.003,3.662 -3.002,5.984 -8.746,6.592 v 1.708 l 22.972,0.004 0.001,-1.708 C 42.028,10.011 38.243,5.251 34.331,-4.026 l -15.399,-36.988 -1.958,0.001 z"
             style="fill:#bf1b2c;fill-opacity:1;fill-rule:nonzero;stroke:none"
             id="path38" /></g><g
           id="g40"
           transform="translate(413.0962,243.4932)"><path
             d="M 0,0 C 9.003,0.002 11.484,0.856 11.484,7.935 11.482,17.945 7.308,23.314 -0.134,23.313 -9.012,23.312 -13.973,15.992 -13.969,2.075 c 0,-0.61 -0.002,-1.341 10e-4,-2.076 z m 1.177,-30.64 c -6.396,0.001 -12.14,2.32 -16.448,6.471 -5.876,5.614 -9.009,13.182 -9.01,20.872 10e-4,5.612 1.827,10.863 5.22,16.357 4.568,7.206 12.399,11.718 19.449,11.719 11.354,-0.001 20.754,-9.76 21.928,-26.122 H -13.97 c -0.126,-1.587 -0.129,-3.171 -0.128,-4.636 0.001,-14.771 5.873,-22.464 16.84,-22.462 9.004,0 15.4,5.496 17.228,15.017 l 1.697,-0.001 C 19.972,-24.167 12.269,-30.636 1.177,-30.64"
             style="fill:#bf1b2c;fill-opacity:1;fill-rule:nonzero;stroke:none"
             id="path42" /></g><g
           id="g44"
           transform="translate(439.1914,264.3711)"><path
             d="m 0,0 c -0.52,0 -1.043,-0.001 -1.693,-0.001 l 0.002,1.706 19.834,0.491 v -15.38 h 0.654 c 2.742,10.013 9.137,15.502 16.967,15.503 6.529,10e-4 10.707,-3.659 10.705,-8.909 0.002,-4.271 -2.74,-7.201 -6.266,-7.199 -3.912,-0.003 -6.652,2.56 -6.654,6.099 -0.002,5.127 5.347,5.252 5.349,6.47 -0.002,0.856 -1.826,1.71 -4.439,1.712 C 25.977,0.491 18.404,-9.887 18.408,-25.999 l 0.002,-15.38 c 0,-4.884 1.045,-6.102 6.395,-6.104 l 4.572,10e-4 v -1.71 l -30.285,-0.003 v 1.71 l 3.394,0.002 c 5.612,-0.001 6.787,0.974 6.785,6.101 L 9.268,-8.668 C 9.27,-1.832 7.836,-0.001 0,0"
             style="fill:#bf1b2c;fill-opacity:1;fill-rule:nonzero;stroke:none"
             id="path46" /></g><g
           id="g48"
           transform="translate(488.9238,235.8096)"><path
             d="m 0,0 1.566,0.002 c 4.832,-14.039 13.186,-21.238 22.063,-21.24 6.914,0.001 11.092,3.543 11.092,9.035 -0.002,4.76 -2.742,7.446 -8.877,10.133 -7.569,3.294 -13.965,5.248 -18.405,8.298 -5.089,3.539 -7.568,7.2 -7.568,12.084 -0.002,7.689 6.654,14.036 15.397,14.035 9.138,0.002 13.705,-6.099 16.187,-6.098 1.695,0 3.393,1.953 4.438,5.976 l 1.564,10e-4 0.006,-20.26 -1.57,0.001 C 31.848,24.052 24.014,30.764 16.184,30.762 9.527,30.764 5.742,27.714 5.744,22.341 5.746,17.579 8.617,14.407 14.617,11.964 21.795,9.037 28.062,7.206 32.5,4.521 c 6.006,-3.66 9.139,-7.934 9.141,-12.937 0.002,-8.424 -6.655,-14.405 -17.098,-14.408 -4.568,0.001 -8.357,1.466 -12.531,4.272 -2.217,1.466 -3.785,2.807 -5.352,2.806 -2.215,0 -3.785,-2.442 -5.09,-7.199 l -1.568,-0.002 z"
             style="fill:#bf1b2c;fill-opacity:1;fill-rule:nonzero;stroke:none"
             id="path50" /></g><g
           id="g52"
           transform="translate(552.9316,281.3604)"><path
             d="m 0,0 c 0.002,-3.542 -2.738,-5.983 -6.395,-5.982 -3.525,-10e-4 -6.267,2.562 -6.265,5.98 0,3.296 2.738,5.861 6.264,5.862 C -2.871,5.857 0,3.296 0,0 m -18.588,-16.982 c -0.523,10e-4 -1.043,0 -1.695,0.002 l 0.002,1.708 20.099,0.487 v -43.576 c 0.006,-4.882 1.047,-6.105 6.399,-6.104 h 3.262 l 0.001,-1.708 -28.978,-0.002 -0.002,1.708 3.398,-0.001 c 5.612,0.002 6.788,0.979 6.786,6.105 l -0.004,32.715 c 0.002,6.837 -1.436,8.666 -9.268,8.666"
             style="fill:#bf1b2c;fill-opacity:1;fill-rule:nonzero;stroke:none"
             id="path54" /></g><g
           id="g56"
           transform="translate(590.4727,215.9238)"><path
             d="m 0,0 c 7.051,-0.003 11.094,5.98 11.092,16.966 0,0.488 0,0.977 0.004,1.466 h 1.953 c 0.002,-0.49 0.002,-0.978 0.002,-1.466 C 13.053,3.904 7.701,-2.442 -3.133,-2.445 -13.316,-2.443 -16.838,2.928 -16.838,14.89 l -0.006,32.103 -11.355,-0.002 0.002,2.321 c 10.963,1.708 16.965,9.397 17.617,22.95 l 2.869,-0.001 0.008,-22.095 16.707,0.001 V 46.994 H -7.703 L -7.699,11.961 C -7.699,3.783 -6.002,-0.003 0,0"
             style="fill:#bf1b2c;fill-opacity:1;fill-rule:nonzero;stroke:none"
             id="path58" /></g><g
           id="g60"
           transform="translate(625.9648,275.0039)"><path
             d="M 0,0 -3.133,-0.001 12.273,18.19 c 1.698,1.955 3.002,3.051 4.567,3.051 1.959,0 3.527,-1.463 3.529,-3.174 -0.006,-1.464 -1.047,-2.562 -3.006,-4.151 z m 4.707,-31.49 c 9.004,10e-4 11.484,0.856 11.484,7.934 -0.002,10.011 -4.175,15.379 -11.619,15.377 -8.877,-0.002 -13.834,-7.321 -13.834,-21.238 0.004,-0.61 0,-1.344 0,-2.076 z m 1.178,-30.639 c -6.397,-0.001 -12.141,2.317 -16.448,6.469 -5.873,5.614 -9.005,13.183 -9.011,20.871 0.002,5.615 1.83,10.863 5.22,16.357 4.573,7.204 12.399,11.718 19.45,11.718 11.355,0.001 20.754,-9.76 21.933,-26.12 l -36.287,-0.002 c -0.133,-1.586 -0.131,-3.172 -0.133,-4.637 0.002,-14.772 5.877,-22.461 16.84,-22.46 9.004,0 15.401,5.497 17.229,15.018 l 1.697,10e-4 C 24.68,-55.658 16.979,-62.128 5.885,-62.129"
             style="fill:#bf1b2c;fill-opacity:1;fill-rule:nonzero;stroke:none"
             id="path62" /></g><g
           id="g64"
           transform="translate(313.0942,172.7637)"><path
             d="m 0,0 c 15.1,0 22.261,4.186 22.261,15.587 0,11.821 -7.05,16.737 -22.041,16.737 -9.06,0 -9.394,-0.628 -9.394,-7.845 L -9.174,0 Z m -9.174,-1.464 v -20.607 c 0,-10.044 2.683,-11.926 15.438,-11.926 v -1.464 h -39.827 v 1.464 c 11.972,0.104 14.543,2.196 14.543,11.926 V 20.4 c 0,9.728 -2.571,11.82 -14.543,11.924 v 1.466 h 33.449 c 22.484,0 34.456,-7.114 34.456,-17.785 0,-10.668 -10.965,-17.469 -32.331,-17.469 z"
             style="fill:#967e72;fill-opacity:1;fill-rule:nonzero;stroke:none"
             id="path66" /></g><g
           id="g68"
           transform="translate(347.7471,159.166)"><path
             d="m 0,0 c 0,-14.96 4.138,-22.491 12.751,-22.491 8.618,0 12.753,7.531 12.753,22.491 0,15.063 -4.135,22.386 -12.753,22.386 C 4.138,22.386 0,15.063 0,0 m 24.387,19.561 c 6.376,-5.125 9.955,-12.448 9.955,-19.667 0,-7.218 -3.579,-14.435 -9.955,-19.561 -3.359,-2.72 -7.383,-4.079 -11.636,-4.079 -4.251,0 -8.275,1.359 -11.634,4.079 -6.263,5.126 -9.957,12.343 -9.957,19.561 0,7.219 3.581,14.542 9.957,19.667 3.359,2.72 7.274,4.081 11.634,4.081 4.362,0 8.277,-1.361 11.636,-4.081"
             style="fill:#967e72;fill-opacity:1;fill-rule:nonzero;stroke:none"
             id="path70" /></g><g
           id="g72"
           transform="translate(398.147,196.4854)"><path
             d="m 0,0 c 0,-3.031 -2.352,-5.125 -5.483,-5.125 -3.019,0 -5.366,2.198 -5.366,5.125 0,2.825 2.347,5.021 5.366,5.021 C -2.463,5.021 0,2.825 0,0 m -15.997,-17.025 h -1.455 v 1.465 l 17.227,0.416 v -37.344 c 0,-4.184 0.894,-5.231 5.483,-5.231 h 2.795 v -1.464 h -24.835 v 1.464 h 2.909 c 4.812,0 5.815,0.837 5.815,5.231 v 28.034 c 0,5.86 -1.23,7.429 -7.939,7.429"
             style="fill:#967e72;fill-opacity:1;fill-rule:nonzero;stroke:none"
             id="path74" /></g><g
           id="g76"
           transform="translate(430.2441,137.9307)"><path
             d="m 0,0 c 6.047,0 9.515,5.124 9.515,14.54 v 1.254 h 1.674 V 14.54 c 0,-11.194 -4.586,-16.634 -13.87,-16.634 -8.726,0 -11.745,4.605 -11.745,14.856 v 27.51 h -9.734 v 1.988 c 9.398,1.466 14.544,8.054 15.1,19.668 h 2.464 V 42.995 H 7.724 V 40.272 H -6.596 V 10.252 C -6.596,3.241 -5.143,0 0,0"
             style="fill:#967e72;fill-opacity:1;fill-rule:nonzero;stroke:none"
             id="path78" /></g><g
           id="g80"
           transform="translate(461.5615,196.4854)"><path
             d="m 0,0 c 0,-3.031 -2.347,-5.125 -5.479,-5.125 -3.023,0 -5.373,2.198 -5.373,5.125 0,2.825 2.35,5.021 5.373,5.021 C -2.461,5.021 0,2.825 0,0 m -15.997,-17.025 h -1.457 v 1.465 l 17.231,0.416 v -37.344 c 0,-4.184 0.895,-5.231 5.482,-5.231 h 2.798 v -1.464 h -24.836 v 1.464 h 2.907 c 4.811,0 5.819,0.837 5.819,5.231 v 28.034 c 0,5.86 -1.23,7.429 -7.944,7.429"
             style="fill:#967e72;fill-opacity:1;fill-rule:nonzero;stroke:none"
             id="path82" /></g><g
           id="g84"
           transform="translate(488.7207,161.5723)"><path
             d="m 0,0 c 7.72,0 9.844,0.73 9.844,6.799 0,8.578 -3.581,13.18 -9.957,13.18 -7.604,0 -11.859,-6.277 -11.859,-18.202 V 0 Z m 1.006,-26.259 c -5.482,0 -10.404,1.989 -14.095,5.545 -5.032,4.814 -7.717,11.298 -7.717,17.89 0,4.811 1.564,9.308 4.472,14.015 3.915,6.173 10.628,10.044 16.67,10.044 9.732,0 17.785,-8.369 18.795,-22.386 h -31.103 c -0.109,-1.362 -0.109,-2.72 -0.109,-3.977 0,-12.657 5.034,-19.248 14.429,-19.248 7.72,0 13.202,4.709 14.765,12.868 H 18.57 C 17.113,-20.714 10.518,-26.259 1.006,-26.259"
             style="fill:#967e72;fill-opacity:1;fill-rule:nonzero;stroke:none"
             id="path86" /></g><g
           id="g88"
           transform="translate(511.0889,179.46)"><path
             d="m 0,0 h -1.455 v 1.466 l 17.004,0.416 v -13.181 h 0.56 c 2.347,8.579 7.831,13.286 14.542,13.286 5.593,0 9.174,-3.138 9.174,-7.636 0,-3.663 -2.346,-6.173 -5.367,-6.173 -3.359,0 -5.706,2.197 -5.706,5.232 0,4.394 4.585,4.496 4.585,5.545 0,0.731 -1.565,1.461 -3.803,1.461 -7.271,0 -13.758,-8.89 -13.758,-22.699 v -13.18 c 0,-4.183 0.894,-5.23 5.479,-5.23 h 3.915 v -1.464 H -0.781 v 1.464 h 2.907 c 4.81,0 5.817,0.837 5.817,5.23 V -7.429 C 7.943,-1.568 6.713,0 0,0"
             style="fill:#967e72;fill-opacity:1;fill-rule:nonzero;stroke:none"
             id="path90" /></g><g
           id="g92"
           transform="translate(555.6299,154.9805)"><path
             d="m 0,0 h 1.344 c 4.139,-12.028 11.298,-18.201 18.906,-18.201 5.928,0 9.51,3.034 9.51,7.741 0,4.078 -2.352,6.379 -7.611,8.683 -6.486,2.824 -11.967,4.498 -15.769,7.112 -4.364,3.034 -6.489,6.171 -6.489,10.356 0,6.592 5.702,12.03 13.198,12.03 7.83,0 11.746,-5.229 13.872,-5.229 1.455,0 2.91,1.673 3.802,5.126 h 1.343 V 10.252 h -1.343 c -3.468,10.355 -10.177,16.109 -16.891,16.109 -5.704,0 -8.949,-2.615 -8.949,-7.216 0,-4.08 2.46,-6.801 7.605,-8.893 6.154,-2.511 11.526,-4.079 15.327,-6.38 5.146,-3.139 7.831,-6.801 7.831,-11.089 0,-7.22 -5.707,-12.344 -14.654,-12.344 -3.915,0 -7.16,1.255 -10.737,3.661 -1.904,1.254 -3.245,2.406 -4.589,2.406 -1.9,0 -3.241,-2.092 -4.362,-6.173 H 0 Z"
             style="fill:#967e72;fill-opacity:1;fill-rule:nonzero;stroke:none"
             id="path94" /></g><g
           id="g96"
           transform="translate(400.4727,417.6235)"><path
             d="m 0,0 v 0.022 h 4.585 c 0.011,0.087 0.028,0.251 0.028,0.493 v 0.792 0.756 c 0,0.24 -0.017,0.406 -0.028,0.513 C 4.408,2.596 4.229,2.6 4.005,2.596 3.78,2.584 3.575,2.576 3.363,2.563 3.156,2.547 2.969,2.556 2.788,2.576 2.62,2.596 2.489,2.667 2.408,2.798 2.277,3.378 2.328,3.874 2.557,4.284 2.783,4.707 3.082,5.03 3.461,5.263 3.837,5.479 4.24,5.614 4.685,5.647 5.141,5.675 5.527,5.599 5.859,5.392 6.195,5.196 6.421,4.886 6.539,4.46 6.674,4.033 6.607,3.481 6.358,2.798 7.294,2.84 8.046,3.088 8.62,3.575 9.178,4.05 9.586,4.622 9.831,5.29 10.075,5.953 10.149,6.666 10.068,7.418 9.981,8.182 9.743,8.854 9.364,9.447 8.982,10.04 8.439,10.509 7.774,10.845 7.1,11.198 6.297,11.279 5.355,11.12 4.513,10.962 3.817,10.616 3.287,10.051 2.757,9.49 2.328,8.814 1.98,8.031 1.638,7.242 1.368,6.369 1.18,5.412 0.973,4.458 0.779,3.516 0.604,2.576 h -0.981 c -0.157,0.75 -0.205,1.487 -0.133,2.196 0.068,0.718 0.205,1.431 0.416,2.131 0.214,0.714 0.463,1.411 0.748,2.11 0.291,0.695 0.574,1.389 0.86,2.087 0.283,0.692 0.519,1.387 0.726,2.081 0.188,0.697 0.305,1.396 0.345,2.111 0.046,0.888 -0.048,1.736 -0.257,2.548 -0.223,0.813 -0.524,1.583 -0.906,2.307 -0.39,0.725 -0.835,1.394 -1.365,2.02 -0.513,0.63 -1.064,1.202 -1.638,1.751 -0.585,-0.549 -1.132,-1.121 -1.651,-1.751 -0.526,-0.626 -0.982,-1.295 -1.357,-2.02 -0.395,-0.724 -0.687,-1.494 -0.905,-2.307 -0.218,-0.812 -0.308,-1.66 -0.266,-2.548 0.039,-1.071 0.27,-2.111 0.685,-3.154 0.408,-1.036 0.828,-2.087 1.265,-3.125 0.418,-1.054 0.769,-2.11 1.031,-3.165 0.26,-1.06 0.26,-2.149 0.005,-3.272 h -0.993 c -0.187,0.94 -0.375,1.882 -0.578,2.836 -0.198,0.957 -0.468,1.83 -0.807,2.619 -0.342,0.783 -0.781,1.459 -1.304,2.02 -0.534,0.565 -1.228,0.911 -2.083,1.069 -0.925,0.159 -1.728,0.078 -2.415,-0.275 -0.671,-0.336 -1.204,-0.805 -1.579,-1.398 -0.386,-0.593 -0.617,-1.265 -0.704,-2.029 -0.079,-0.752 0,-1.465 0.231,-2.128 0.244,-0.668 0.641,-1.24 1.215,-1.715 0.574,-0.487 1.322,-0.735 2.266,-0.777 -0.275,0.683 -0.345,1.235 -0.211,1.662 0.139,0.426 0.377,0.736 0.706,0.932 0.327,0.207 0.718,0.283 1.169,0.255 0.437,-0.033 0.855,-0.168 1.246,-0.384 0.384,-0.233 0.682,-0.556 0.903,-0.979 0.218,-0.41 0.27,-0.906 0.17,-1.486 C -5.627,2.667 -5.751,2.596 -5.933,2.576 -6.107,2.556 -6.306,2.547 -6.511,2.563 -6.72,2.576 -6.929,2.584 -7.147,2.596 -7.366,2.6 -7.558,2.596 -7.723,2.576 -7.747,2.469 -7.756,2.303 -7.767,2.063 -7.78,1.826 -7.787,1.56 -7.787,1.307 c 0,-0.28 0.007,-0.537 0.02,-0.792 0.011,-0.242 0.02,-0.406 0.044,-0.493 h 4.547 C -3.176,0.015 -3.182,0.009 -3.182,0 Z"
             style="fill:#bf1b2c;fill-opacity:1;fill-rule:nonzero;stroke:none"
             id="path98" /></g><g
           id="g100"
           transform="translate(395.9619,407.8071)"><path
             d="m 0,0 c -0.011,0.711 0.973,1.292 0.973,1.292 -3.312,0.793 -5.571,-0.184 -7.421,-1.971 -0.669,1.032 -2.344,2.211 -6.591,-0.394 -2.451,-1.499 -4.198,-4.907 -5.381,-8.208 -3.509,-6.164 -6.747,-7.873 -8.895,-8.2 -1.447,-0.03 -2.294,0.202 -2.294,0.202 -0.842,0.51 -2.12,3.691 -2.12,3.691 -2.103,-3.737 -10.711,-3.433 -10.123,1.742 0.648,5.632 7.124,0.666 7.124,0.666 0.199,0.774 1.267,0.436 2.327,2.403 1.065,1.981 1.054,4.177 1.054,4.177 -6.781,0.397 -5.117,4.594 -5.117,4.594 2.717,3.864 6.464,0.259 6.464,0.259 1.708,0.774 0.598,4.539 0.598,4.539 l 0.801,-0.009 0.552,1.944 c 0.431,2.456 -1.625,2.922 -1.625,2.922 l -5.425,1.521 c -2.417,3.736 -5.355,2.816 -8.447,2.92 -3.104,0.114 -4.626,3.429 -4.626,3.429 -0.936,-0.842 -1.224,-4.375 -1.224,-4.375 -3.257,-0.059 -6.666,2.336 -6.666,2.336 -0.076,-1.767 1.601,-3.776 1.601,-3.776 -7.965,-0.244 -10.467,-8.181 -10.823,-9.597 -0.342,-1.418 -1.771,-2.354 -1.771,-2.354 1.435,-0.202 3.82,0.624 3.82,0.624 l -0.232,-0.449 c 0,0 -6.388,-14.068 -1.961,-19.84 10.719,-13.994 5.979,-17.327 5.979,-17.327 3.411,-1.554 6.716,1.512 6.716,1.512 0.307,-5.268 4.955,-9.599 4.955,-9.599 -1.546,3.418 -0.015,5.932 -0.015,5.932 7.307,-10.111 4.511,-14.559 -2.013,-26.657 -6.513,-12.099 -2.284,-15.074 -2.284,-15.074 -2.183,-0.515 -3.649,-1.824 -6.594,2.578 -2.929,4.406 7.05,22.987 7.05,22.987 0.065,0.491 2.934,9.254 -0.992,12.28 -3.916,3.03 -8.426,-1.396 -8.426,-1.396 -7.593,-0.502 -8.886,-8.775 -8.116,-12.088 0.778,-3.348 1.337,-5.811 1.337,-5.811 2.144,0.219 3.444,6.984 3.444,6.984 1.049,-0.342 2.065,-4.087 2.065,-4.087 1.599,0.689 1.645,7.92 1.645,7.92 1.507,-0.801 1.433,-5.115 1.433,-5.115 1.568,2.006 0.347,11.008 0.347,11.008 5.629,3.075 5.965,-3.302 5.775,-4.982 -0.658,-5.738 -9.313,-19.571 -8.015,-27.273 1.295,-7.713 8.982,-6.51 8.982,-6.51 0,0 0.776,1.299 3.298,-6.967 2.909,-9.503 -6.812,-10.548 -6.812,-10.548 l 3.016,-1.507 c -2.888,-1.324 -6.618,-5.966 -6.227,-15.253 0.384,-9.29 12.299,-6.5 13.957,-5.357 2.205,1.516 5.745,0.958 5.745,0.958 l 0.753,1.099 c 0.863,5.008 -3.66,4.199 -3.66,4.199 l 1.828,0.96 c -0.877,2.429 -4.428,0.691 -4.428,0.691 l 0.111,0.879 c -5.197,1.694 -6.087,-4.316 -6.087,-4.316 -6.252,7.463 -2.395,11.57 10.255,15.329 12.657,3.751 8.946,19.813 8.946,19.813 1.286,-0.166 6.191,3.505 6.191,3.505 -0.137,-12.667 -4.026,-14.786 -4.785,-15.079 1.35,0.451 9.922,-2.285 9.922,-2.285 16.974,-2.329 21.729,5.479 21.188,6.755 -0.392,0.935 -1.007,0.98 -1.308,0.939 1.113,0.228 1.007,1.318 1.007,1.318 0.207,1.573 -3.023,1.499 -3.023,1.499 0.401,0.759 0.794,0.689 0.794,0.689 -6.513,4.696 -9.214,-4.303 -9.214,-4.303 -2.9,-0.722 -9.98,0.414 -9.98,0.414 -1.305,3.086 5.601,9.717 5.601,9.717 0,0 10.574,7.041 2.234,16.981 -8.328,9.937 -20.586,-3.011 -20.586,-3.011 1.415,6.145 8.624,10.511 13.723,15.665 5.104,5.161 3.327,14.533 3.327,14.533 l 4.879,0.463 c -2.86,21.672 6.86,26.119 7.496,27.142 0.638,1.016 4.546,1.005 4.546,1.005 2.024,1.538 -0.054,4.825 -0.054,4.825 1.886,0.663 3.718,-1.494 3.718,-1.494 C 6.306,0.583 0,0 0,0"
             style="fill:#967e72;fill-opacity:1;fill-rule:nonzero;stroke:none"
             id="path102" /></g><g
           id="g104"
           transform="translate(365.9082,311.583)"><path
             d="m 0,0 c -0.043,-0.015 -0.101,-0.022 -0.129,-0.043 0,0 0.047,0.011 0.129,0.043"
             style="fill:#967e72;fill-opacity:1;fill-rule:nonzero;stroke:none"
             id="path106" /></g><g
           id="g108"
           transform="translate(357.8027,417.7729)"><path
             d="M 0,0 C 1.366,-0.284 -2.445,1.324 -6.895,-0.393"
             style="fill:none;stroke:#ffffff;stroke-width:0.358;stroke-linecap:butt;stroke-linejoin:miter;stroke-miterlimit:4;stroke-dasharray:none;stroke-opacity:1"
             id="path110" /></g><g
           id="g112"
           transform="translate(355.6587,418.2529)"><path
             d="m 0,0 c 0,0 0.491,-0.868 -0.155,-1.185 -0.652,-0.316 -1.64,-0.985 -2.687,-0.547 -1.054,0.432 -0.722,1.405 -0.722,1.405 z"
             style="fill:#ffffff;fill-opacity:1;fill-rule:nonzero;stroke:none"
             id="path114" /></g><g
           id="g116"
           transform="translate(480.7852,311.396)"><path
             d="M 0,0 C 0.087,-0.034 0.137,-0.046 0.137,-0.046 0.107,-0.023 0.047,-0.015 0,0"
             style="fill:#967e72;fill-opacity:1;fill-rule:nonzero;stroke:none"
             id="path118" /></g><g
           id="g120"
           transform="translate(511.79,362.9385)"><path
             d="m 0,0 c 0,0 -4.505,4.434 -8.426,1.398 -3.922,-3.023 -1.045,-11.791 -0.99,-12.289 0,0 9.989,-18.574 7.049,-22.982 -2.941,-4.393 -4.414,-3.082 -6.594,-2.57 0,0 4.234,2.969 -2.281,15.064 -6.526,12.094 -9.314,16.559 -2.016,26.66 0,0 1.534,-2.511 -0.016,-5.929 0,0 4.654,4.336 4.96,9.599 0,0 3.303,-3.064 6.712,-1.511 0,0 -4.744,3.328 5.982,17.323 4.43,5.778 -1.959,19.843 -1.959,19.843 l -0.233,0.458 c 0,0 2.383,-0.822 3.819,-0.634 0,0 -1.429,0.946 -1.774,2.356 -0.353,1.413 -2.857,9.355 -10.823,9.599 0,0 1.68,2 1.604,3.769 0,0 -3.414,-2.391 -6.668,-2.334 0,0 -0.292,3.527 -1.224,4.382 0,0 -1.522,-3.327 -4.626,-3.435 -3.089,-0.101 -6.026,0.807 -8.448,-2.923 l -5.431,-1.514 c 0,0 -2.039,-0.471 -1.618,-2.929 l 0.552,-1.933 0.811,0.007 c 0,0 -1.112,-3.771 0.591,-4.541 0,0 3.747,3.605 6.463,-0.26 0,0 1.664,-4.203 -5.115,-4.587 0,0 -0.011,-2.218 1.05,-4.188 1.064,-1.965 2.124,-1.625 2.336,-2.405 0,0 6.468,4.968 7.121,-0.655 0.576,-5.189 -8.034,-5.485 -10.127,-1.745 0,0 -1.287,-3.186 -2.122,-3.695 0,0 -0.857,-0.233 -2.317,-0.201 -2.151,0.338 -5.385,2.066 -8.885,8.236 -1.182,3.29 -2.925,6.678 -5.365,8.173 -4.24,2.601 -5.914,1.423 -6.586,0.39 -1.85,1.789 -4.111,2.767 -7.429,1.973 0,0 0.979,-0.578 0.974,-1.283 0,0 -6.303,0.574 -4.222,-5.378 0,0 1.832,2.15 3.727,1.487 0,0 -2.08,-3.287 -0.065,-4.82 0,0 3.918,0.013 4.554,-1.008 0.635,-1.018 10.367,-5.462 7.494,-27.142 l 4.895,-0.46 c 0,0 -1.784,-9.37 3.319,-14.531 5.103,-5.156 12.3,-9.527 13.716,-15.671 0,0 -12.261,12.953 -20.59,3.007 -8.328,-9.928 2.236,-16.982 2.236,-16.982 0,0 6.903,-6.618 5.598,-9.702 0,0 -7.073,-1.132 -9.98,-0.414 0,0 -2.695,8.982 -9.214,4.303 0,0 0.399,0.059 0.792,-0.693 0,0 -3.224,0.071 -3.019,-1.508 0,0 -0.103,-1.076 0.999,-1.312 -0.3,0.042 -0.904,-0.005 -1.291,-0.934 -0.543,-1.279 4.204,-9.085 21.177,-6.747 0,0 8.548,2.715 9.918,2.276 -0.775,0.302 -4.641,2.443 -4.77,15.078 0,0 4.9,-3.678 6.189,-3.499 0,0 -3.712,-16.071 8.941,-19.825 12.653,-3.76 16.507,-7.866 10.258,-15.321 0,0 -0.894,6.015 -6.094,4.324 l 0.118,-0.897 c 0,0 -3.547,1.739 -4.437,-0.683 l 1.839,-0.969 c 0,0 -4.523,0.814 -3.664,-4.187 l 0.748,-1.118 c 0,0 3.54,0.573 5.751,-0.945 1.653,-1.131 13.58,-3.936 13.962,5.355 0.377,9.301 -3.337,13.925 -6.236,15.255 l 3.023,1.505 c 0,0 -9.715,1.065 -6.818,10.546 2.526,8.275 3.296,6.962 3.296,6.962 0,0 7.701,-1.186 8.993,6.52 1.293,7.703 -7.362,21.53 -8.028,27.275 -0.182,1.679 0.156,8.05 5.781,4.975 0,0 -1.226,-9.001 0.342,-10.999 0,0 -0.067,4.298 1.44,5.106 0,0 0.046,-7.229 1.644,-7.924 0,0 1.015,3.756 2.075,4.091 0,0 1.291,-6.759 3.43,-6.973 0,0 0.57,2.458 1.351,5.802 C 8.895,-8.777 7.601,-0.504 0,0"
             style="fill:#967e72;fill-opacity:1;fill-rule:nonzero;stroke:none"
             id="path122" /></g><g
           id="g124"
           transform="translate(488.8984,417.5894)"><path
             d="M 0,0 C -1.363,-0.286 2.449,1.324 6.895,-0.401"
             style="fill:none;stroke:#ffffff;stroke-width:0.358;stroke-linecap:butt;stroke-linejoin:miter;stroke-miterlimit:4;stroke-dasharray:none;stroke-opacity:1"
             id="path126" /></g><g
           id="g128"
           transform="translate(491.0488,418.0669)"><path
             d="m 0,0 c 0,0 -0.49,-0.873 0.155,-1.187 0.648,-0.32 1.643,-0.997 2.683,-0.551 1.054,0.443 0.722,1.409 0.722,1.409 z"
             style="fill:#ffffff;fill-opacity:1;fill-rule:nonzero;stroke:none"
             id="path130" /></g><g
           id="g132"
           transform="translate(426.0273,417.6235)"><path
             d="m 0,0 c 0,0.009 -0.011,0.015 -0.011,0.022 h 4.593 c 0.012,0.087 0.031,0.251 0.031,0.493 v 0.792 0.756 c 0,0.24 -0.019,0.406 -0.031,0.513 C 4.414,2.596 4.221,2.6 4.002,2.596 3.782,2.584 3.563,2.576 3.361,2.563 3.158,2.547 2.964,2.556 2.785,2.576 2.598,2.596 2.474,2.667 2.391,2.798 2.269,3.378 2.325,3.874 2.554,4.284 2.778,4.707 3.077,5.03 3.459,5.263 3.828,5.479 4.237,5.614 4.685,5.647 5.132,5.675 5.521,5.599 5.854,5.392 6.186,5.196 6.414,4.886 6.539,4.46 6.665,4.033 6.603,3.481 6.349,2.798 7.282,2.84 8.035,3.088 8.615,3.575 9.187,4.05 9.582,4.622 9.826,5.29 10.062,5.953 10.134,6.666 10.053,7.418 9.979,8.182 9.741,8.854 9.356,9.447 8.973,10.04 8.449,10.509 7.763,10.845 7.098,11.198 6.29,11.279 5.354,11.12 4.499,10.962 3.806,10.616 3.291,10.051 2.757,9.49 2.316,8.814 1.974,8.031 1.638,7.242 1.363,6.369 1.156,5.412 0.96,4.458 0.77,3.516 0.582,2.576 h -0.96 c -0.168,0.75 -0.215,1.487 -0.137,2.196 0.068,0.718 0.211,1.431 0.414,2.131 0.212,0.714 0.452,1.411 0.753,2.11 0.292,0.695 0.58,1.389 0.855,2.087 0.272,0.692 0.516,1.387 0.724,2.081 0.192,0.697 0.312,1.396 0.356,2.111 0.039,0.888 -0.053,1.736 -0.271,2.548 -0.218,0.813 -0.519,1.583 -0.912,2.307 -0.373,0.725 -0.826,1.394 -1.345,2.02 -0.517,0.63 -1.067,1.202 -1.66,1.751 -0.574,-0.549 -1.115,-1.121 -1.647,-1.751 -0.517,-0.626 -0.966,-1.295 -1.352,-2.02 -0.376,-0.724 -0.681,-1.494 -0.903,-2.307 -0.218,-0.812 -0.301,-1.66 -0.267,-2.548 0.049,-1.071 0.278,-2.111 0.694,-3.154 0.408,-1.036 0.831,-2.087 1.25,-3.125 0.434,-1.054 0.77,-2.11 1.034,-3.165 0.255,-1.06 0.272,-2.149 0.014,-3.272 h -0.993 c -0.183,0.94 -0.38,1.882 -0.581,2.836 -0.196,0.957 -0.462,1.83 -0.809,2.619 -0.342,0.783 -0.776,1.459 -1.308,2.02 -0.528,0.565 -1.22,0.911 -2.075,1.069 -0.929,0.159 -1.738,0.078 -2.408,-0.275 -0.68,-0.336 -1.204,-0.805 -1.588,-1.398 -0.388,-0.593 -0.621,-1.265 -0.7,-2.029 -0.093,-0.752 -0.017,-1.465 0.236,-2.128 0.227,-0.668 0.637,-1.24 1.211,-1.715 0.571,-0.487 1.314,-0.735 2.257,-0.777 -0.271,0.683 -0.336,1.235 -0.205,1.662 0.131,0.426 0.373,0.736 0.704,0.932 0.336,0.207 0.724,0.283 1.169,0.255 0.441,-0.033 0.86,-0.168 1.246,-0.384 C -6.24,5.03 -5.937,4.707 -5.721,4.284 -5.503,3.874 -5.442,3.378 -5.551,2.798 -5.636,2.667 -5.761,2.596 -5.937,2.576 -6.116,2.556 -6.308,2.547 -6.518,2.563 -6.72,2.576 -6.932,2.584 -7.154,2.596 -7.364,2.6 -7.571,2.596 -7.734,2.576 -7.754,2.469 -7.767,2.303 -7.778,2.063 -7.787,1.826 -7.795,1.56 -7.795,1.307 c 0,-0.28 0.008,-0.537 0.017,-0.792 0.011,-0.242 0.024,-0.406 0.044,-0.493 h 4.553 C -3.181,0.015 -3.185,0.009 -3.185,0 Z"
             style="fill:#bf1b2c;fill-opacity:1;fill-rule:nonzero;stroke:none"
             id="path134" /></g><g
           id="g136"
           transform="translate(451.3223,417.6235)"><path
             d="m 0,0 v 0.022 h 4.583 c 0.021,0.087 0.035,0.251 0.035,0.493 v 0.792 0.756 c 0,0.24 -0.014,0.406 -0.035,0.513 C 4.422,2.596 4.223,2.6 4.005,2.596 3.793,2.584 3.575,2.576 3.372,2.563 3.163,2.547 2.971,2.556 2.797,2.576 2.609,2.596 2.479,2.667 2.399,2.798 2.279,3.378 2.327,3.874 2.565,4.284 2.79,4.707 3.091,5.03 3.457,5.263 3.833,5.479 4.249,5.614 4.689,5.647 5.135,5.675 5.531,5.599 5.863,5.392 6.188,5.196 6.422,4.886 6.546,4.46 6.67,4.033 6.604,3.481 6.354,2.798 7.294,2.84 8.038,3.088 8.62,3.575 9.183,4.05 9.598,4.622 9.835,5.29 10.073,5.953 10.145,6.666 10.062,7.418 9.981,8.182 9.743,8.854 9.359,9.447 8.986,10.04 8.454,10.509 7.776,10.845 7.098,11.198 6.297,11.279 5.361,11.12 4.505,10.962 3.824,10.616 3.296,10.051 2.762,9.49 2.321,8.814 1.985,8.031 1.643,7.242 1.374,6.369 1.167,5.412 0.971,4.458 0.788,3.516 0.594,2.576 h -0.967 c -0.161,0.75 -0.209,1.487 -0.131,2.196 0.064,0.718 0.205,1.431 0.41,2.131 0.216,0.714 0.456,1.411 0.757,2.11 0.293,0.695 0.574,1.389 0.856,2.087 0.272,0.692 0.516,1.387 0.714,2.081 0.202,0.697 0.322,1.396 0.357,2.111 0.039,0.888 -0.044,1.736 -0.269,2.548 -0.212,0.813 -0.512,1.583 -0.91,2.307 -0.368,0.725 -0.828,1.394 -1.341,2.02 -0.528,0.63 -1.08,1.202 -1.66,1.751 -0.58,-0.549 -1.123,-1.121 -1.646,-1.751 -0.517,-0.626 -0.973,-1.295 -1.36,-2.02 -0.375,-0.724 -0.679,-1.494 -0.902,-2.307 -0.214,-0.812 -0.302,-1.66 -0.26,-2.548 0.046,-1.071 0.266,-2.111 0.687,-3.154 0.415,-1.036 0.838,-2.087 1.257,-3.125 0.427,-1.054 0.769,-2.11 1.027,-3.165 0.262,-1.06 0.262,-2.149 0.019,-3.272 H -3.76 c -0.192,0.94 -0.388,1.882 -0.58,2.836 -0.203,0.957 -0.467,1.83 -0.809,2.619 -0.349,0.783 -0.777,1.459 -1.309,2.02 -0.532,0.565 -1.22,0.911 -2.074,1.069 -0.936,0.159 -1.743,0.078 -2.415,-0.275 -0.674,-0.336 -1.203,-0.805 -1.588,-1.398 -0.386,-0.593 -0.617,-1.265 -0.699,-2.029 -0.088,-0.752 -0.012,-1.465 0.237,-2.128 0.242,-0.668 0.642,-1.24 1.215,-1.715 0.564,-0.487 1.322,-0.735 2.251,-0.777 -0.264,0.683 -0.329,1.235 -0.198,1.662 0.13,0.426 0.368,0.736 0.697,0.932 0.334,0.207 0.724,0.283 1.174,0.255 C -7.416,5.614 -6.997,5.479 -6.615,5.263 -6.237,5.03 -5.926,4.707 -5.712,4.284 -5.498,3.874 -5.437,3.378 -5.544,2.798 -5.632,2.667 -5.758,2.596 -5.926,2.576 -6.104,2.556 -6.299,2.547 -6.506,2.563 -6.709,2.576 -6.925,2.584 -7.147,2.596 -7.358,2.6 -7.56,2.596 -7.723,2.576 -7.738,2.469 -7.763,2.303 -7.767,2.063 -7.775,1.826 -7.784,1.56 -7.784,1.307 c 0,-0.28 0.009,-0.537 0.017,-0.792 0.004,-0.242 0.029,-0.406 0.044,-0.493 h 4.55 V 0 Z"
             style="fill:#bf1b2c;fill-opacity:1;fill-rule:nonzero;stroke:none"
             id="path138" /></g><g
           id="g140"
           transform="translate(393.7954,276.5713)"><path
             d="m 0,0 2.166,0.001 c 2.168,0 2.608,0.206 2.607,2.353 L 4.772,13.17 c -0.001,2.643 -0.974,3.231 -4.775,3.259 L -0.004,16.9 c 3.363,0.178 5.529,0.825 6.567,2.087 L 7.254,18.986 7.253,2.354 C 7.254,0.266 7.665,0 9.645,0 l 1.852,0.001 -10e-4,-0.412 -11.497,0.001 z"
             style="fill:#bf1b2c;fill-opacity:1;fill-rule:nonzero;stroke:none"
             id="path142" /></g><g
           id="g144"
           transform="translate(415.1226,293.0615)"><path
             d="m 0,0 -7.099,-9.788 0.002,-0.384 7.099,0.001 z m -4.332,-16.49 1.946,0.003 c 2.041,-0.001 2.387,0.382 2.387,2.29 L 0,-11.315 -7.602,-11.317 -7.6,-9.729 1.259,2.499 2.391,2.498 V -10.17 l 3.736,10e-4 -0.002,-1.147 -3.734,0.001 -0.002,-2.617 c 0.002,-2.026 0.283,-2.556 2.198,-2.556 h 1.54 L 6.126,-16.9 H -4.333 Z"
             style="fill:#bf1b2c;fill-opacity:1;fill-rule:nonzero;stroke:none"
             id="path146" /></g><g
           id="g148"
           transform="translate(434.5693,281.04)"><path
             d="m 0,0 c -0.001,-3.056 -2.454,-5.23 -6.253,-5.23 -3.553,-10e-4 -5.908,1.939 -5.908,4.291 0,1.351 0.818,2.202 1.917,2.202 0.816,0 1.38,-0.558 1.38,-1.411 0.003,-0.76 -0.435,-1.261 -1.348,-1.673 -0.471,-0.208 -0.848,-0.207 -0.848,-0.676 0.001,-0.764 1.854,-2.292 4.334,-2.292 2.766,0 3.99,1.616 3.991,4.965 0,3.117 -1.287,4.733 -3.616,4.731 -0.724,0.001 -1.38,-0.32 -1.881,-0.322 -0.472,0.001 -0.695,0.059 -0.693,0.295 -10e-4,0.352 0.377,0.411 1.194,0.412 3.55,0 4.775,1.174 4.775,4.731 0,2.616 -1.258,3.938 -3.676,3.939 -2.295,-10e-4 -3.802,-1.117 -3.804,-2.116 10e-4,-0.382 0.317,-0.354 0.819,-0.589 0.69,-0.321 0.975,-0.763 0.973,-1.41 0.002,-0.854 -0.534,-1.411 -1.379,-1.411 -0.849,0 -1.575,0.764 -1.573,1.968 0,2.206 2.2,4.058 5.12,4.059 3.676,-0.002 6.16,-2.059 6.161,-4.527 C -0.316,7.73 -2.139,5.879 -5.187,5.291 V 5.056 C -1.856,4.409 -0.002,2.559 0,0"
             style="fill:#bf1b2c;fill-opacity:1;fill-rule:nonzero;stroke:none"
             id="path150" /></g><g
           id="g152"
           transform="translate(437.9922,276.5752)"><path
             d="m 0,0 h 2.166 c 2.17,-0.001 2.608,0.206 2.607,2.353 v 10.813 c 0.001,2.646 -0.974,3.233 -4.775,3.262 l -0.002,0.471 c 3.363,0.175 5.531,0.823 6.568,2.087 L 7.256,18.985 7.254,2.35 C 7.255,0.265 7.666,-0.001 9.646,-0.001 h 1.852 L 11.496,-0.413 H -0.001 Z"
             style="fill:#bf1b2c;fill-opacity:1;fill-rule:nonzero;stroke:none"
             id="path154" /></g><g
           id="g156"
           transform="translate(236.6484,164.3623)"><path
             d="M 0,0 C 3.119,4.482 5.549,12.323 5.504,18.018 5.467,22.613 3.761,25 0.387,24.974 -1.667,24.956 -3.929,23.499 -5.593,20.812 -7.041,18.468 -8.046,15.784 -9.048,12.688 -10.549,7.871 -11.18,4.094 -11.16,1.557 -11.129,-2.286 -9.499,-4.263 -6.641,-4.24 -4.294,-4.221 -1.959,-2.76 0,0 M 7.008,-5.023 C 4.661,-5.041 3.034,-3.2 3.009,-0.046 3.002,0.778 3.14,1.875 3.349,3.25 L 2.907,3.385 c -2.375,-5.645 -5.726,-8.487 -9.761,-8.518 -5.06,-0.041 -8.981,4.389 -9.035,11.043 -0.04,5.008 1.904,9.552 5.976,13.975 3.562,3.939 6.993,5.885 10.147,5.909 3.96,0.032 6.109,-2.417 6.147,-7.22 0.002,-0.274 0.004,-0.548 0.006,-0.891 l 0.441,-0.136 4.268,16.636 c 0.284,1.169 0.57,2.203 0.563,2.958 C 11.641,39.539 9.653,40.347 5.4,40.313 4.887,40.31 4.373,40.305 3.86,40.301 L 3.853,41.192 18.007,41.307 7.175,1.703 c -0.5,-1.788 -0.782,-3.095 -0.776,-3.987 0.009,-1.028 0.453,-1.572 1.26,-1.566 2.2,0.017 5.689,3.956 8.487,11.797 L 17.028,7.749 C 14.308,-0.642 10.308,-4.997 7.008,-5.023"
             style="fill:#967e72;fill-opacity:1;fill-rule:nonzero;stroke:none"
             id="path158" /></g><g
           id="g160"
           transform="translate(273.8203,185.1025)"><path
             d="M 0,0 C -0.021,2.606 -1.796,4.443 -4.07,4.426 -8.03,4.393 -11.656,-0.709 -14.582,-10.818 -5.131,-9.715 0.043,-5.558 0,0 m -11.236,-25.679 c -5.354,-0.044 -9.644,4.45 -9.698,11.105 -0.037,4.665 2.126,9.416 6.491,14.049 3.71,3.871 7.286,5.886 10.292,5.91 3.521,0.028 6.256,-2.487 6.28,-5.574 0.049,-6.106 -5.713,-10.13 -17.069,-11.731 -0.786,-2.546 -1.135,-4.811 -1.12,-6.731 0.032,-3.911 1.809,-5.954 4.889,-5.931 4.399,0.035 9.21,3.711 13.405,11.085 l 0.884,-0.476 c -4.338,-7.716 -9.514,-11.669 -14.354,-11.706"
             style="fill:#967e72;fill-opacity:1;fill-rule:nonzero;stroke:none"
             id="path162" /></g></g></g></g></svg>
